<?xml version="1.0" encoding="utf-8"?>
<!-- Generator: Adobe Illustrator 27.7.0, SVG Export Plug-In . SVG Version: 6.00 Build 0)  -->
<svg version="1.1" id="レイヤー_2" xmlns="http://www.w3.org/2000/svg" xmlns:xlink="http://www.w3.org/1999/xlink" x="0px"
	 y="0px" viewBox="0 0 668 402" xml:space="preserve">
<style type="text/css">
	.st0{fill:none;stroke:gray;stroke-width:2;}
	.st1{fill:none;}
	.st2{fill:white;}
  .st3{
    fill:none;
    stroke:white;
    stroke-width:12;
    stroke-miterlimit:10;
  }
</style>
<animate
    xlink:href="#Mask"
    attributeType="XML"
    attributeName="stroke-dasharray"
    from="0,4700"
    to="4700,0"
    dur="6s"
    repeatCount="1"
    begin="0s"
    fill="freeze"
    calcMode="linear"
  />
<g id="layer-1" mask="url(#layer-2)">
	<g>
		<path vector-effect="non-scaling-stroke" class="st0" d="M528.5,61.2v-0.5c0-0.4-0.2-0.8-0.6-0.9c-0.7-0.3-1.6-0.4-2.5-0.2
			c-0.2,0-0.4,0-0.6,0c-4.8-1.9-7.1,2.5-7.6,6.6c-0.1,0.5,0.2,1,0.7,1.1l5.2,1.5c0.2,0.1,0.4,0.2,0.5,0.4l0.4,0.5
			c0.2,0.2,0.4,0.4,0.7,0.4l10.2,1.1c0.2,0,0.4,0.1,0.6,0.3l0.4,0.4c0.3,0.3,0.8,0.4,1.2,0.1c1.1-0.7,2.2-0.7,3.3,0
			c0.4,0.3,0.9,0.2,1.2-0.1l2.2-2.2c0.4-0.4,0.4-1,0-1.4c-2.9-3.2-6.4-5.4-10.5-6.5c-0.1,0-0.7-0.3-1.9-0.8
			c-0.8-0.4-1.5-0.2-2.2,0.6C528.8,62.3,528.5,62.2,528.5,61.2"/>
		<path vector-effect="non-scaling-stroke" class="st0" d="M369.7,87.1c-1.1-1.5-1.4-3-0.9-4.7c0.1-0.2,0.2-0.4,0.5-0.6
			c0.4-0.2,0.7-0.6,0.7-1.1c0-0.3-0.1-0.6-0.4-0.8c-0.6-0.3-2.3-5-2.8-6c-0.1-0.2-0.1-0.4-0.1-0.6c0.2-1.4-0.2-2.7-1.3-3.7
			c-0.2-0.2-0.4-0.3-0.6-0.3c-2.9-0.1-5.2,1-6.9,3.3c-0.2,0.2-0.2,0.5-0.2,0.8c0.6,2.2,1.2,4.3,1.9,6.5c0.4,1.2,1.4,1.9,1.7,3.2
			c1.3,4.8,3.5,9.5,5.1,14.3c0.1,0.3,0.4,0.6,0.7,0.7c6.2,1.3,5.1-6.5,4.9-10c0-0.5-0.4-0.9-1-0.9h-0.7
			C370.2,87.5,369.9,87.3,369.7,87.1"/>
		<path vector-effect="non-scaling-stroke" class="st0" d="M553,89.1l0.2-0.3c0.3-0.5,0.2-0.6-0.4-0.5c-22.9,6.4-43.1,14-66.5,25.4
			c-2.9,1.4-5.8,3.4-8.5,6c-0.2,0.2-0.3,0.4-0.3,0.7c-0.4,5.5,2.2,8.3,7.8,8.2c0.2,0,0.5-0.1,0.6-0.2c10-8.9,23.4-14.5,35.7-19.4
			c3-1.2,5.4-1.5,7.9-4c0.2-0.2,0.4-0.3,0.7-0.3h4.5c0.3,0,0.5-0.1,0.7-0.3c2.2-2.5,4.9-3.8,8.2-3.9c0.3,0,0.6-0.1,0.7-0.4
			c1.5-1.8,3.9-1.1,5.5-1.5c7.4-2,14.8-3.9,22.3-5.7c1.8-0.4,3.4-1.5,5.5-1.9c2.7-0.5,4.1-0.7,4.2-0.8c9-2.4,18.1-3.8,27.4-4.2
			c0.3,0,0.5-0.1,0.7-0.3c1.4-1.4,3.1-1.7,5.1-0.8c0.2,0.1,0.4,0.1,0.6,0.1l1.6-0.2c0.5-0.1,1,0.3,1.1,0.8c0.2,1,0.9,1.4,2,1.2
			c0.3-0.1,0.7,0,0.9,0.3c1.1,1.2,2.6,1.7,4.3,1.4c0.2,0,0.4-0.1,0.5-0.2c1.5-1.4,3.3-1.8,5.3-1.4c0.5,0.1,1.1-0.2,1.2-0.8
			c0.2-1.1,0.8-2,1.8-2.7c0.2-0.1,0.3-0.3,0.3-0.5c1-3.2,0.3-5.5-2-6.9c-1-0.6-2.4-0.8-4.3-0.6c-5.2,0.6-10.6,0-15.3,0.6
			c-10,1.1-19.8,3-29.7,4.4c-5.7,0.8-11.1,3.2-16.8,4.3c-0.2,0.1-0.4,0.2-0.6,0.4c-0.2,0.2-0.4,0.2-0.6,0.3c-2.9,0.2-5.6,0.8-8.2,2
			c-0.2,0.1-0.3,0.2-0.4,0.4c-0.8,1.3-1.9,2.1-3.3,2.4C552.7,90,552.5,89.8,553,89.1"/>
		<path vector-effect="non-scaling-stroke" class="st0" d="M395.7,222.4l0.8,0.3c0.2,0,0.3,0.1,0.5,0c1.9-0.3,7-0.6,8.4-1.5
			c0.2-0.2,0.5-0.3,0.7-0.5c0.4-0.3,1-0.3,1.3,0.1l2,1.9c0.4,0.4,1,0.4,1.4,0c0.1-0.1,0.1-0.1,0.2-0.2c0.7-1.4,1.9-2.4,3.6-3.1
			c0.3-0.1,0.6-0.4,0.6-0.8c1.7-13,1.1-25.7,0.6-38.7c-0.1-2.4,0.2-4.6,0.4-7c0-0.3-0.1-0.7-0.4-0.9l-0.4-0.3
			c-0.8-0.7-0.7-1,0.4-0.9c2.8,0.2,4.9-0.9,6.2-3.1c6.8-11.2,16.1-21.7,21.6-32.8c2.5-5.1,4.5-10.4,6.1-15.8
			c0.9-3.3-0.6-7.7-0.8-11.2c0-0.2-0.1-0.4-0.2-0.6c-1.4-1.9-1.9-5.2-4.5-6c-0.4-0.1-0.6-0.4-0.7-0.8c-0.2-1.1-0.8-1.6-1.9-1.5
			c-0.4,0-0.7,0.3-0.8,0.6c-0.5,1.2-1.4,1.4-2.5,0.7c-0.2-0.1-0.3-0.3-0.4-0.5l-0.8-1.8c-0.1-0.3-0.4-0.5-0.7-0.6
			c-0.6-0.1-0.8,0-0.9,0.4c0,0.2-0.2,0.5-0.4,0.5c-0.9,0.3-1.4,0.1-1.5-0.7c0-0.4-0.3-0.7-0.6-0.8c-3-1.1-6-1.4-9-0.8
			c-6.4,1.2-12.9,2-19.3,3.3c-0.2,0-0.3,0-0.5,0c-0.7-0.2-1.2,0-1.7,0.5c-0.1,0.2-0.3,0.3-0.5,0.3c-3.6,0.8-7.9,2.3-12.9,4.5
			c-13.8,6-26.3,13.1-37.4,21.4c-4.9,3.6-9.4,8.4-13.9,12.8c-0.2,0.2-0.3,0.4-0.3,0.6c-0.3,2.1-1.4,3.6-3.2,4.4
			c-0.5,0.2-1.1,0-1.3-0.5c-0.1-0.1-0.1-0.3-0.1-0.4l-0.3-12c0-0.3,0.1-0.6,0.4-0.8c1.9-1.4,1.6-2.5-0.8-3.3c-0.2-0.1-0.4-0.1-0.6,0
			c-14.1,4.4-5.8,20.1-5.7,29.7c0,0.4,0.2,0.7,0.5,0.9l0.6,0.3c0.3,0.2,0.5,0.5,0.5,0.9c0,2.7,0.4,5.2,1.2,7.7
			c1.3,3.6,0.9,6.9,2.9,10.5c0.1,0.2,0.1,0.4,0.1,0.6l-0.3,3.3c0,0.2,0,0.4,0.1,0.6l4.8,8.6c0.1,0.2,0.3,0.4,0.6,0.5
			c2.5,0.8,4.5,0,5.9-2.2c0.2-0.2,0.2-0.5,0.1-0.8c-1.4-4.6-2.3-9.4-2.8-14.2c0-0.3-0.1-0.5-0.3-0.7l-1.1-0.9
			c-0.2-0.2-0.4-0.5-0.3-0.8l0.7-8.1c0-0.2,0-0.4-0.1-0.6c-1.4-2.5,0.4-4.2,0.6-6.6c0.2-2.4,1.6-2.8,2.6-4.5c8-14.2,20.1-22,35-30.5
			c11.3-6.5,23.4-11.2,36.1-14.2c1.5-0.4,5.6-0.4,12.1-0.2c0.3,0,0.5-0.1,0.7-0.3c1.6-1.5,3.1-1.4,4.3,0.1c0.2,0.3,0.6,0.4,1,0.3
			l2.9-0.6c0.3-0.1,0.6,0,0.8,0.2c2.1,1.6,3.9,3.1,4.3,5.9c0.5,4.8,1.2,11.7-2,15.7c-2.1,2.6-2.8,6.2-4.6,9.2
			c-1.5,2.5-2.6,4.4-3.3,5.9c-3.1,6.7-7,13-11.7,18.7c-5.9,7.3-17.4,7.4-26.8,7.4c-2,0-5.2,1-9.6,2.9c-0.3,0.1-0.5,0-0.7-0.3
			c0-0.1,0-0.1,0-0.2v-0.3c0-0.6-0.5-1-1.1-0.9c-0.1,0-0.1,0-0.2,0c-2.5,0.6-4.9,1.5-7.2,2.6c-4,2-9.5,2.3-13.1,5.2
			c-0.2,0.2-0.5,0.3-0.8,0.2l-3.7-0.9c-0.4-0.1-0.9,0.1-1.1,0.5c-1.4,2.3-1.8,4.8-1.2,7.4c0,0.2,0,0.5-0.1,0.7
			c-0.7,1.4,1.6,9.7,2.1,11.2c2.2,5.6,4.6,10.6,6.4,16.6c1.3,4.2,3.6,7.8,7.1,10.5c0.2,0.1,0.3,0.2,0.5,0.2
			c3.7,0.3,7.3-0.3,10.6-1.7c0.3-0.1,0.6,0,0.7,0.3l0,0c0.2,0.4,0.5,0.6,1,0.6c3.2,0.2,6.4,0.4,9.7,0.7c0.7,0,0.9-0.2,0.5-0.8
			c-0.3-0.4-0.2-0.7,0.2-0.9c0.2-0.1,0.5-0.1,0.7,0l1.9,1.1c0.5,0.3,1.1,0.1,1.4-0.4c0-0.1,0.1-0.1,0.1-0.2l0.2-0.5
			C395.2,222.4,395.4,222.3,395.7,222.4"/>
		<path vector-effect="non-scaling-stroke" class="st0" d="M274.7,188.6c-0.3-0.6-5.2,0.5-5.4,0.5c-5.2,0.2-10.5,0.4-15.7,0.8
			c-0.6,0-1-0.4-1.1-0.9l0,0c-0.1-6.8-0.2-13.6-0.3-20.4c0-4.5,0.4-9,0.5-13.6c0-0.4-0.2-0.8-0.6-0.9c-0.8-0.3-0.8-0.8-0.1-1.2
			c0.3-0.2,0.4-0.5,0.4-0.8l0.2-9.3c0-0.5-0.4-1-0.9-1c-1.6-0.2-1.6-0.5,0-1c0.4-0.1,0.6-0.4,0.7-0.8c1.2-5.4-0.3-9.9-4.4-13.3
			c-0.2-0.1-0.4-0.2-0.6-0.2c-2.2-0.1-4.2,0.7-5.8,2.2c-0.2,0.2-0.3,0.5-0.3,0.8c0.1,4.2,0.9,9.1,1.1,12.6c1,15.4,0.7,30.7-0.9,46.1
			c-0.2,1.6,1.3,4.3-1.8,3.6c-0.2,0-0.4,0-0.6,0.1c-4.7,2.2-9.6,2-13.9,3.2c-7,2-15.7,3.5-21.6,7.9c-3.3,2.5-3.5,6-1.2,9.2
			c0.1,0.2,0.3,0.3,0.6,0.4c4.5,1.1,8.3,0,11.4-3.2c0.1-0.1,0.3-0.2,0.5-0.3c5-1.1,9.9-2.5,14.6-4.2c1.3-0.5,2.5-0.6,3.8-0.3
			c0.4,0.1,0.8-0.1,1-0.4l0.9-1.1c0.2-0.2,0.4-0.4,0.7-0.4l4.2-0.3c0.6,0,1,0.4,1.1,0.9v0.1c-0.2,2.7-0.4,5.5-0.8,8.2
			c-2.5,17.3-3.7,34.9-8.8,51.7c-0.4,1.3,0,2.4-0.4,3.8c-5.9,20.4-11.1,41.5-19.4,61.1c-0.6,1.4-0.4,3,1.2,3.3
			c0.4,0.1,0.7,0,0.9-0.3c2.7-3.2,5.1-7.1,7.2-11.8c4.1-9.5,7.6-18.1,10.4-25.8c3.1-8.4,5.6-18.5,8.5-27.8c0.2-0.5,0.3-2,0.5-4.6
			c0-0.2,0.1-0.4,0.2-0.5c1.7-2.1,1.2-4.4,1.7-6.4c0.9-3.6,1.7-7.3,2.3-11c0-0.2,0.1-0.3,0.2-0.5c1.1-1.4,1.6-2.9,1.5-4.6
			c0-0.8,0.5-3.4,1.7-1.4c0.1,0.2,0.2,0.4,0.1,0.5c0,1,0.1,1.7,0.2,2c6.6,12.5,14.2,24.4,24.4,32.7c4.2,3.5,7.4,0.2,7.6-4.2
			c0.3-9.7-1.1-19.3,0.6-30.9c1.3-8.7,2.4-16.9,5.7-26.8c0.4-1.1,3.2-6,3-8c0-0.3,0.1-0.6,0.3-0.8c3.2-3.2,3.7-6.9,1.4-11
			c-1.3-2.5-3.3-3.3-5.7-2.6c-4.1,1.2-7.6,1.7-10.8,1.4C275,189,274.8,188.8,274.7,188.6"/>
		<path vector-effect="non-scaling-stroke" class="st0" d="M525.8,149.7c1.4,1.5,2.9,1.9,4.4,1.3c4-1.7,8-3.3,12.1-4.7
			c0.2-0.1,0.4-0.2,0.5-0.4c0.4-0.7,1-0.8,1.7-0.3c0.4,0.3,0.8,0.3,1.2,0l1.9-1.3c0.2-0.1,0.4-0.2,0.7-0.2c2.5,0.2,5.2-0.4,8.1-1.8
			c1.3-0.6,2.5-0.4,3.7,0.8c0.3,0.3,0.6,0.3,1,0.2l3.9-1.3c0.3-0.1,0.5-0.3,0.6-0.5c0.6-1.2,0.8-2.4,0.3-3.5
			c-0.2-0.5-0.8-0.8-1.3-0.6c-0.1,0-0.1,0.1-0.2,0.1l-0.3,0.2c-0.4,0.2-0.8,0.1-1.1-0.2c-3.6-5.1-7-3.3-12-3c-1.1,0.1-4,1.2-4.8,0.7
			c-0.3-0.2-0.7-0.2-1,0c-3.2,1.7-6.7,2.6-10.4,2.7c-0.2,0-0.4,0.1-0.5,0.2c-2.7,1.9-5.7,2.9-8.8,3.2c-0.3,0-0.5,0.2-0.7,0.4
			c-1.8,2-2.5,6.6,0.8,7.8C525.6,149.5,525.7,149.6,525.8,149.7"/>
		<path vector-effect="non-scaling-stroke" class="st0" d="M401.8,142.9c0.3-0.5,0.3-0.9-0.2-1.2c-0.3-0.2-0.6-0.1-0.8,0.1
			c-1.1,1.1-1.9,1.8-3.6,1.7c-4.2-0.1-8.2,0.6-12,2.3c-0.2,0.1-0.4,0.1-0.6,0.1c-4.4-1-13.7,5.2-17.9,6.9c-1.9,0.8-3.8,1.7-5.6,2.8
			c-3,1.8-3.8,4.3-2.4,7.4c2.6,5.8,7.5,2,10.8-0.7c0.3-0.2,0.7-0.3,1-0.1c1,0.4,1.6,0.2,1.7-0.8c0.1-0.5,0.4-0.8,0.9-0.8
			c1.4-0.1,2.6-0.8,3.4-1.9c0.3-0.4,0.8-0.5,1.2-0.3c0.5,0.2,0.9,0,1.1-0.6c0.1-0.2,0.2-0.4,0.4-0.5c1.4-1,2.9-1.4,4.6-1.3
			c0.3,0,0.5-0.1,0.8-0.3c1.6-1.5,3.6-1.6,5.2-2.2c3.3-1.2,6.6-2.2,10.1-3c0.3-0.1,0.6,0,0.9,0.2l1.7,1.4c0.4,0.3,0.9,0.3,1.3,0
			l3.3-2.8c0.3-0.3,0.4-0.6,0.3-1c-0.5-1.9-1.5-3.5-3-4.7c-0.4-0.3-0.9-0.3-1.3,0c-0.2,0.1-0.3,0.2-0.5,0.3
			C401.3,144.4,401,144,401.8,142.9"/>
		<path vector-effect="non-scaling-stroke" class="st0" d="M116,217.3v-0.4c0-0.3-0.2-0.7-0.5-0.8c-1.6-1-2.7-0.9-3.6,0.3
			c-0.3,0.4-0.7,0.5-1.1,0.4c-1-0.3-2-0.7-2.9-1.1c-0.2-0.1-0.5-0.1-0.8-0.1L106,216c-0.3,0.1-0.6,0.1-0.8-0.1
			c-0.4-0.2-0.7-0.3-1.1-0.3c-0.5,0-0.9,0.5-0.9,1c0,0.8-0.5,0.9-1.7,0.2c-0.4-0.3-1-0.2-1.3,0.2l-0.5,0.6c-0.3,0.3-0.8,0.4-1.1,0.1
			c-0.1-0.1-0.1-0.2-0.2-0.3c-0.3-0.7-0.8-0.7-1.5,0c-0.3,0.3-0.7,0.4-1.1,0.2l-0.7-0.3c-0.2-0.1-0.4-0.1-0.6-0.1
			c-1.8,0.3-3.6,0.5-5.4,0.7c-3.1,0.4-6.4,2.1-10.3,1.8c-0.2,0-0.4,0-0.6,0.2c-2,1.3-4.1,2-6.5,2c-0.6,0-1-0.4-1-1
			c0-0.1,0-0.1,0-0.2c0.5-2.5,1.2-4.9,2.1-7.3c0.2-0.5,0.1-1-0.3-1.6c-0.2-0.3-0.3-0.7-0.1-1c0.9-1.8,1.7-3.6,1.8-5.6
			c0.6-7.5,2.3-15.2,2.2-22.5c0-4.3-0.9-9.1,0-13.3c0.1-0.4-0.1-0.8-0.4-1c-1.1-0.7-1.2-1.6-0.4-2.5c0.3-0.3,0.3-0.8,0.1-1.2
			c-1-1.5-1.2-3.3-0.7-5.1c0.1-0.2,0.1-0.4,0-0.6c-1.1-3.7,0.2-6-3.6-8.5c-0.3-0.2-0.6-0.2-0.9-0.1c-1.1,0.4-2.3,0.6-3.4,0.6
			c-2.5,0-3.5,0.9-3.1,3c1.5,6.9,2,13.9,3.1,20.9c0.5,3.3,0,6.5-1.4,9.7c-0.1,0.3-0.1,0.7,0.1,1c1.7,2.5,0.1,5.1-0.1,7.2
			c-0.1,1.6-0.3,3.1-0.4,4.7c-0.4,5.1-2,9.7-2.1,15c0,0.3-0.2,0.6-0.4,0.8c-2.1,1.4-0.8,3.1-1,4.7c-0.2,2.1-1.3,8.4-4.2,7.8
			c-0.3-0.1-0.5,0-0.8,0.2c-1.2,0.8-2,1.3-2.6,1.4c-4.1,0.8-8,2.2-11.7,4.2c-1.5,0.8-2.7,0.4-4.3,1.1c-5.3,2.2-10.7,4-16.3,5.4
			c-2,0.5-2.9,1.8-2.5,3.8c1.5,9.8,14.1,3.5,18.5,0.6c0.2-0.1,0.4-0.2,0.6-0.2c1.3,0.1,2.7-0.4,4.4-1.4c4.1-2.5,8.7-4.1,13.6-4.6
			c0.5-0.1,1,0.3,1.1,0.9c0,0.1,0,0.2,0,0.4c-8.6,33.2-18.7,65.9-30.3,98.1c-4.5,12.6-10.8,24.1-17,35.7c-0.8,1.5-0.8,2.9,0,4.2
			c0.2,0.4,0.7,0.5,1.1,0.4c8.9-2.2,21.4-32.7,24.7-41.4c5-13.4,9.6-25,14.1-40.4c4.4-15,8.9-28.1,13.7-42.4
			c0.2-0.5,0.8-0.8,1.3-0.6c0.1,0,0.3,0.1,0.4,0.2c2.2,2.2,16.1,13,15.9,17.5c0,0.3,0.1,0.6,0.3,0.8c2.9,2.5,3.6,5.6,6.2,8
			c4,3.7,6.3,6.1,6.9,7.4c1.5,3.1,3.8,5.6,6.8,7.4c0.3,0.2,0.7,0.2,1.1,0c5.2-3.3,2.8-8.2,4.8-13c0.1-0.3,0.1-0.6-0.1-0.9
			c-0.6-1-0.5-2,0.4-3c0.1-0.2,0.2-0.4,0.2-0.6c0.3-3.6,0.8-7.2,1.2-10.7c0-0.2,0-0.4-0.1-0.5l-0.8-2.1c-0.2-0.5,0-1,0.5-1.3
			c1-0.5,1.3-1.3,0.9-2.5c-0.1-0.2-0.1-0.3,0-0.5c0.6-3.3,1.8-5.9,2.3-9.5c0.4-2.8,2-4.6,2.3-7.2c0.1-1.2,0.3-2.3,0.5-3.5
			c0.1-0.3,0.2-0.6,0.5-0.7c1-0.6,1.3-1.3,0.8-2.3c-0.2-0.3-0.2-0.6,0-0.9c2.1-4.2,3.5-8.6,4.1-13.2c0-0.1,0-0.3,0-0.4
			c-0.8-2.4-1.9-3-3.4-1.8C116.3,218.1,116,218,116,217.3"/>
		<path vector-effect="non-scaling-stroke" class="st0" d="M537.8,157.4c-0.3-1.4-4.1,1.7-4.7,2c-0.3,0.2-0.4,0.5-0.5,0.8
			c-0.2,3.1,0.9,5.5,3.4,7.2c0.2,0.2,0.5,0.2,0.8,0.1l22.8-6.3c0.4-0.1,0.9,0.1,1.1,0.4l0.8,1.2c0.1,0.2,0.3,0.2,0.4,0.1l0.3-0.2
			c0.2-0.1,0.2-0.3,0.2-0.5c-1.8-5.9,13.2,3.4,7.6-7.8c-0.1-0.3-0.4-0.5-0.8-0.6c-1.8-0.2-3.2-1.1-4.1-2.6c-0.2-0.4-0.7-0.6-1.2-0.4
			l-10,3.3c-0.5,0.2-1,0-1.2-0.5c-0.7-1.3-1.8-0.5-2.6,0.3c-1.4,1.4-3.2,1.9-5.2,1.4c-0.2,0-0.4,0-0.6,0.1l-5.7,2.3
			C538.3,157.8,537.9,157.7,537.8,157.4C537.8,157.5,537.8,157.5,537.8,157.4"/>
		<path vector-effect="non-scaling-stroke" class="st0" d="M137.7,251.7c7.7-6.3,16-17.6,21.8-26.9c0.1-0.1,0.1-0.2,0.2-0.2
			c1.1-1.4,1.7-1.2,1.8,0.6c0.3,11.1,0.8,22.2,1.7,33.2c0.2,3.1-0.2,9.7,1.3,13.7c0.4,1,0.5,1.9,0.3,2.5c-0.1,0.2-0.1,0.4,0,0.6
			c1.7,5.1,3.9,10,6.6,14.7c0.1,0.2,0.3,0.4,0.6,0.5c3.1,0.9,5.1,0.2,6.1-1.9c1.6-3.4-1.4-8.5-3.5-11.4c-0.2-0.2-0.2-0.5-0.1-0.8
			c0.2-0.7,0-1.2-0.6-1.5c-0.2-0.1-0.4-0.4-0.5-0.6c-0.7-3.1-1.1-6.2-1.1-9.3c0.1-9.2-0.4-18.2-0.8-27.4c-0.3-6.6,0.6-14.9-0.6-22.6
			c-1-6.4,2.1-12.9,3.9-18.8c0.5-1.6,1.4-2.6,2-4.3c0.5-1.5,0.9-2.5,1.3-3.2c3.6-6.3,6.3-13,8.1-20.2c0.5-1.9-0.1-3.3-1.6-4.2
			l-3.2-1.9c-1.4-0.8-2.5-0.4-3.2,1.1c-2.1,4.3-3.9,8.8-5.2,13.5c-0.2,0.7-0.6,1.4-1.2,2.2c-0.1,0.2-0.2,0.3-0.2,0.5
			c-0.1,1.3-0.6,2.3-1.4,3.1c-0.3,0.3-0.4,0.7-0.3,1l0.1,0.3c0.1,0.4,0,0.8-0.3,1.1l-1.4,1.1c-0.2,0.2-0.3,0.4-0.4,0.6l-0.6,3.7
			c0,0.2-0.1,0.4-0.3,0.6c-1.1,1-1.7,2.3-1.9,3.8c0,0.3-0.2,0.6-0.4,0.7l-1.8,1.2c-0.2,0.1-0.3,0.3-0.4,0.5
			c-3.5,10.2-9.6,20.3-15,29.7c-5,8.6-10.7,15.4-17.2,23.5C125.7,256,136.6,252.6,137.7,251.7"/>
		<path vector-effect="non-scaling-stroke" class="st0" d="M517.2,195.3c-2.5,1.1,3.1,13.9,4.1,15.9c1.1,2.1,1.6,3.4,1.7,4
			c1.2,7.1,3.9,13.6,8,19.6c0.3,0.4,0.8,0.5,1.2,0.4l3.1-1.2c0.4-0.2,0.7-0.6,0.6-1.1c-1.1-5.6-1.6-11.3-1.6-17c0-0.2,0-0.4-0.1-0.5
			l-1.9-3.2c-0.3-0.5-0.1-1,0.3-1.3c1.6-1.1,1.9-2.6,0.9-4.6c-0.1-0.3-0.1-0.6,0-0.9c1-2.2,1.4-4.6,1.2-7.1c0-0.2,0-0.4,0.1-0.6
			c4.5-7.3,12.2-9.8,19.8-12.8c1-0.4,3.9-0.5,8.6-0.4c3.9,0.1,6.4,1.4,8.5,4.4c0.2,0.3,0.2,0.6,0.1,0.9c-1.2,3.2-4,4.8-6.5,7.4
			c-0.9,0.9-1.8,2-2.9,3.5c-5.9,8-13.1,14.7-21.6,20c-1.4,0.8-1.7,2.1-1.1,3.9l1.6,4.4c0.1,0.3,0.4,0.6,0.7,0.6
			c0.6,0.1,1.3,0.2,1.9,0.3c4.5,0.2,8.8,1.8,13.5,2c2.4,0.1,4.1-1.3,6.2-1.4c6.2-0.3,18.9-0.9,27,1.6c3.6,1.1,4.9,0.2,4.1-2.7
			l-1.4-5c-0.1-0.5-0.7-0.8-1.2-0.7c-0.1,0-0.2,0.1-0.3,0.2l-0.4,0.3c-0.3,0.3-0.8,0.3-1.2,0c-1.6-1-2.5-2.1-4.5-2.3
			c-9.2-0.9-17.7-1-25.7-0.3c-2.4,0.2-2.8-0.6-1.2-2.4c3.8-4.5,7.7-8.3,11.2-12.6c2.6-3.2,6-4.8,8.4-8.9c3.5-6.1,5.8-11.7-1.1-16.8
			c-6.1-4.5-12.8-7.2-20.3-5.7c-6.2,1.3-11.4,2.4-17.3,4.7c-0.5,0.2-0.7,0.7-0.6,1.2c0.4,1.5,0,1.7-1.2,0.7
			c-0.3-0.3-0.8-0.3-1.1-0.1l-4.1,2.2c-0.2,0.1-0.3,0.2-0.4,0.4l-4.9,8.2c-0.2,0.3-0.2,0.7,0,1.1c0.9,1.3,0.3,2-1.8,2.2
			c-0.3,0-0.5-0.1-0.8-0.2l-5.1-4.3c-0.3-0.2-0.7-0.3-1-0.2c-1.6,0.7-2,1.7-1.2,3.3C517.8,194.6,517.6,195.1,517.2,195.3
			L517.2,195.3"/>
		<path vector-effect="non-scaling-stroke" class="st0" d="M423.5,230.9c-0.2-0.4-0.3-0.4-0.5-0.1c-0.1,0.2-0.3,0.4-0.6,0.5
			c-9.8,2-18.2,3.6-25,4.7c-0.9,0.1-1.6,0.4-2.3,0.9c-0.4,0.2-0.8,0.2-1.2-0.1c-0.5-0.4-1.1-0.4-1.6,0.2c-0.2,0.2-0.4,0.3-0.7,0.3
			c-5.8,0.2-11.9,2-16.9,2.8c-12.9,2.1-24.7,6.4-35.5,13c-6.1,3.7-0.7,9.1,4.2,9.6c0.5,0,0.9-0.3,1.1-0.7l0.1-0.5
			c0.1-0.4,0.5-0.7,1-0.7c1.2,0,2.1-0.5,2.5-1.6c0.1-0.2,0.3-0.4,0.5-0.5l4.7-1.9c0.1,0,0.2-0.1,0.3-0.1c2.5-0.2,4.1-1.6,6.2-2.2
			c14.5-3.9,29.1-6.9,44-9c0.1,0,0.2-0.1,0.4-0.1l1.7-0.9c0.3-0.2,0.6-0.2,0.9,0c2.3,1,3.9,0.7,5-1.1c0.2-0.3,0.5-0.5,0.8-0.5
			c4.8-0.2,14.5-0.2,15.7-1.7c0.2-0.2,0.4-0.3,0.6-0.4c3.2-0.4,6.5-0.7,9.8-0.9c5.1-0.3,10.6-1.2,16-1.3c0.2,0,0.4,0.1,0.6,0.2
			l2.5,1.7c0.5,0.3,0.6,0.9,0.2,1.4c0,0,0,0.1-0.1,0.1l-0.3,0.3c-0.4,0.4-0.3,1.1,0.1,1.4c0.1,0.1,0.2,0.1,0.3,0.2
			c0.8,0.3,1.3,0.9,1.4,1.8c0.1,0.4,0.3,0.7,0.6,0.8c1.8,0.7,2.7,0.4,2.5-0.9c0-0.5,0.3-1,0.8-1.1c2.3-0.4,3.8-1.5,4.6-3.4
			c0.6-1.7,0.4-3.4-0.8-5.2c-1.7-2.6-4.2-4.3-7.4-5c-0.4-0.1-0.8,0.1-0.9,0.5c-0.2,0.5-0.5,0.7-1,0.5c-0.3-0.1-0.5-0.5-0.4-0.8
			c0-0.1,0.1-0.2,0.2-0.2c0.3-0.3,0.3-0.6-0.2-0.9c-0.3-0.3-0.8-0.2-1.1,0.2l-0.8,1c-0.5,0.6-0.8,0.6-0.9-0.2l-0.1-0.3
			c-0.1-0.4-0.5-0.7-0.9-0.7c-0.1,0-0.2,0-0.3,0.1l-0.5,0.3c-0.4,0.2-0.8,0.1-1.1-0.1l-0.2-0.2c-0.3-0.3-0.8-0.3-1.1,0.1
			c0,0,0,0.1-0.1,0.1l-0.2,0.2c-0.2,0.3-0.6,0.4-0.9,0.2c-0.1-0.1-0.2-0.1-0.2-0.2c-0.6-1.1-1.3-1.2-1.9-0.4c-0.3,0.4-1,0.5-1.4,0.2
			l0,0c-0.9-0.8-1.6-0.5-2.2,1c-0.3,0.6-0.6,0.7-0.9,0l-0.2-0.3c-0.2-0.3-0.5-0.5-0.9-0.5h-2.9c-0.4,0-0.8,0.3-1,0.7
			c-0.5,1.4-1,1.6-1.6,0.4c-0.2-0.5-0.8-0.7-1.3-0.5l0,0l-0.8,0.4c-0.3,0.2-0.7,0.1-1-0.1c-0.9-0.6-1.8-0.5-2.7,0.3
			c-0.2,0.2-0.4,0.3-0.6,0.3l-5.3,0.1C424,231.5,423.6,231.3,423.5,230.9"/>
		<path vector-effect="non-scaling-stroke" class="st0" d="M372.6,182.7c-4.2,0.3-7,2.4-8.3,6.4c-0.1,0.3-0.3,0.5-0.5,0.6
			c-3,1.5-1.1,4.5,0.6,6.5c0.2,0.2,0.5,0.4,0.8,0.4c8-0.3,15.8-1.6,23.5-3.8c1.1-0.3,1.4-0.2,1.9,0.7c0.2,0.4,0.6,0.6,1.1,0.6
			c4.6-0.7,9.1-2.1,13.4-4.1c0.4-0.2,0.6-0.5,0.6-0.9l-0.1-9.9c0-0.6-0.5-1-1-1l0,0c-3.9,0.2-6.9,0.3-9.1,0.2
			c-0.3,0-0.8-0.2-1.4-0.5c-0.2-0.1-0.5-0.2-0.8-0.1c-3.5,1.2-6.8,1.1-10.5,2.1c-2.3,0.7-4.7,0.9-7.2,0.7c-0.3,0-0.7,0.1-0.9,0.4
			l-1.2,1.5C373.1,182.5,372.9,182.7,372.6,182.7"/>
		<path vector-effect="non-scaling-stroke" class="st0" d="M406,210.2c1.5-0.8,1.9-2,1-3.6c-0.1-0.2-0.2-0.5-0.1-0.8l0.5-1.4
			c0.2-0.5,0-1-0.5-1.2c-1.1-0.6-1.6-1.3-1.6-2.3c0-0.6-0.5-1-1-1c-0.1,0-0.2,0-0.3,0.1c-0.8,0.3-1.6,0.5-2.5,0.5
			c-1.6,0.1-2.7,0.3-3.4,0.5c-8.7,2.6-17.6,4.6-26.7,5.9c-0.5,0.1-0.9,0.6-0.9,1.1c0,0.1,0,0.1,0,0.2l1.4,4.4
			c0.1,0.4,0.5,0.7,0.9,0.7c3.8,0.3,7.6,0.4,11.5,0.5c0.7,0,1.2,0.4,1.6,1.2c0.2,0.4,0.6,0.6,1,0.6c2.6-0.2,5.3,0.4,7.9-0.4
			c3.6-1.1,6.5-1.1,9.9-1.8c0.5-0.1,0.8-0.5,0.8-1v-1.2C405.5,210.7,405.7,210.4,406,210.2"/>
		<path vector-effect="non-scaling-stroke" class="st0" d="M257.1,241.7c4.8,5.3,7.8,11.1,12.8,15.9c1.2,1.1,1.8,0.9,1.7-0.8
			c-0.5-9.7,0.1-19.3,1.6-28.9c0.3-1.9,0.4-3.8,0.3-5.7c0-0.2,0-0.3,0.1-0.5c1.7-3.5,1.7-7.3,2.8-10.5c1.1-3.1,1.9-5.3,2.6-6.8
			c2-4.7,0.6-6.5-4.2-5.2c-0.3,0.1-0.6,0-0.8-0.1c-2.7-1.7-5.5,1.2-7.5,1.1c-4.6-0.1-9.2-0.1-13.7,0.2c-1.5,0.1-2.3,1-2.3,2.8
			c0,4.1-0.2,8.2-0.7,12.3s-2.7,7.7-0.4,11.7c1.7,2.9,3.3,5.8,5,8.8C255.3,237.8,255.5,239.9,257.1,241.7"/>
		<path vector-effect="non-scaling-stroke" class="st0" d="M97.5,225.1c-1-1.1-2-0.9-2.9,0.7c-0.2,0.3-0.5,0.5-0.8,0.5
			c-2.6,0.1-5.6,1.2-8.1,0.8c-0.2,0-0.5,0-0.7,0.1c-2.1,1.3-4.3,1-6.2,1.5c-2.7,0.7-5.4,1.5-8.2,2.2c-0.2,0.1-0.4,0.2-0.5,0.4
			c-3,4-3.2,8.4-4.5,12.3c-0.6,1.9,0,3.4,1.9,4.5c7,4.2,13,9.5,18,16.1c0.1,0.2,0.4,0.3,0.6,0.4c1,0.2,1.6,0.9,1.7,1.9
			c0,0.3,0.2,0.6,0.5,0.8c1.4,0.8,2.6,1.9,3.5,3.3c1.7,2.5,3.8,4.6,6.4,6.2c0.5,0.3,1.1,0.1,1.4-0.3c0.1-0.1,0.1-0.3,0.1-0.4
			c0.4-3.1,0.6-6.3,0.6-9.4c0-3.4,0.5-6.4,1-9.7c0.1-0.8,0.6-3.2,1.5-7.1c0.8-3.4,0.5-6.4,1.8-9.8c1.7-4.7,3-9.4,4-14.3
			c0.1-0.5-0.2-1.1-0.8-1.2c-0.1,0-0.2,0-0.3,0c-2.3,0.2-4.6,0.2-6.9,0.1c-0.7,0-1.2,0.2-1.6,0.7C98.6,225.6,97.9,225.6,97.5,225.1
			C97.5,225.2,97.5,225.1,97.5,225.1"/>
		<path vector-effect="non-scaling-stroke" class="st0" d="M545.4,179.1c0.9-0.8,0.8-1.2-0.5-1.2c-0.3,0-0.5,0.2-0.5,0.5
			c0,0.1,0,0.1,0,0.2l0.1,0.3c0.1,0.3,0.4,0.4,0.7,0.3C545.3,179.2,545.4,179.2,545.4,179.1"/>
	</g>
	<path class="st1" d="M0,0h668v402H0V0z M528.5,61.2v-0.5c0-0.4-0.2-0.8-0.6-0.9c-0.7-0.3-1.6-0.4-2.5-0.2c-0.2,0-0.4,0-0.6,0
		c-4.8-1.9-7.1,2.5-7.6,6.6c-0.1,0.5,0.2,1,0.7,1.1l5.2,1.5c0.2,0.1,0.4,0.2,0.5,0.4l0.4,0.5c0.2,0.2,0.4,0.4,0.7,0.4l10.2,1.1
		c0.2,0,0.4,0.1,0.6,0.3l0.4,0.4c0.3,0.3,0.8,0.4,1.2,0.1c1.1-0.7,2.2-0.7,3.3,0c0.4,0.3,0.9,0.2,1.2-0.1l2.2-2.2
		c0.4-0.4,0.4-1,0-1.4c-2.9-3.2-6.4-5.4-10.5-6.5c-0.1,0-0.7-0.3-1.9-0.8c-0.8-0.4-1.5-0.2-2.2,0.6
		C528.8,62.3,528.5,62.2,528.5,61.2z M369.7,87.1c-1.1-1.5-1.4-3-0.9-4.7c0.1-0.2,0.2-0.4,0.5-0.6c0.4-0.2,0.7-0.6,0.7-1.1
		c0-0.3-0.1-0.6-0.4-0.8c-0.6-0.3-2.3-5-2.8-6c-0.1-0.2-0.1-0.4-0.1-0.6c0.2-1.4-0.2-2.7-1.3-3.7c-0.2-0.2-0.4-0.3-0.6-0.3
		c-2.9-0.1-5.2,1-6.9,3.3c-0.2,0.2-0.2,0.5-0.2,0.8c0.6,2.2,1.2,4.3,1.9,6.5c0.4,1.2,1.4,1.9,1.7,3.2c1.3,4.8,3.5,9.5,5.1,14.3
		c0.1,0.3,0.4,0.6,0.7,0.7c6.2,1.3,5.1-6.5,4.9-10c0-0.5-0.4-0.9-1-0.9h-0.7C370.2,87.5,369.9,87.3,369.7,87.1z M553,89.1l0.2-0.3
		c0.3-0.5,0.2-0.6-0.4-0.5c-22.9,6.4-43.1,14-66.5,25.4c-2.9,1.4-5.8,3.4-8.5,6c-0.2,0.2-0.3,0.4-0.3,0.7c-0.4,5.5,2.2,8.3,7.8,8.2
		c0.2,0,0.5-0.1,0.6-0.2c10-8.9,23.4-14.5,35.7-19.4c3-1.2,5.4-1.5,7.9-4c0.2-0.2,0.4-0.3,0.7-0.3h4.5c0.3,0,0.5-0.1,0.7-0.3
		c2.2-2.5,4.9-3.8,8.2-3.9c0.3,0,0.6-0.1,0.7-0.4c1.5-1.8,3.9-1.1,5.5-1.5c7.4-2,14.8-3.9,22.3-5.7c1.8-0.4,3.4-1.5,5.5-1.9
		c2.7-0.5,4.1-0.7,4.2-0.8c9-2.4,18.1-3.8,27.4-4.2c0.3,0,0.5-0.1,0.7-0.3c1.4-1.4,3.1-1.7,5.1-0.8c0.2,0.1,0.4,0.1,0.6,0.1l1.6-0.2
		c0.5-0.1,1,0.3,1.1,0.8c0.2,1,0.9,1.4,2,1.2c0.3-0.1,0.7,0,0.9,0.3c1.1,1.2,2.6,1.7,4.3,1.4c0.2,0,0.4-0.1,0.5-0.2
		c1.5-1.4,3.3-1.8,5.3-1.4c0.5,0.1,1.1-0.2,1.2-0.8c0.2-1.1,0.8-2,1.8-2.7c0.2-0.1,0.3-0.3,0.3-0.5c1-3.2,0.3-5.5-2-6.9
		c-1-0.6-2.4-0.8-4.3-0.6c-5.2,0.6-10.6,0-15.3,0.6c-10,1.1-19.8,3-29.7,4.4c-5.7,0.8-11.1,3.2-16.8,4.3c-0.2,0.1-0.4,0.2-0.6,0.4
		c-0.2,0.2-0.4,0.2-0.6,0.3c-2.9,0.2-5.6,0.8-8.2,2c-0.2,0.1-0.3,0.2-0.4,0.4c-0.8,1.3-1.9,2.1-3.3,2.4
		C552.7,90,552.5,89.8,553,89.1z M395.7,222.4l0.8,0.3c0.2,0,0.3,0.1,0.5,0c1.9-0.3,7-0.6,8.4-1.5c0.2-0.2,0.5-0.3,0.7-0.5
		c0.4-0.3,1-0.3,1.3,0.1l2,1.9c0.4,0.4,1,0.4,1.4,0c0.1-0.1,0.1-0.1,0.2-0.2c0.7-1.4,1.9-2.4,3.6-3.1c0.3-0.1,0.6-0.4,0.6-0.8
		c1.7-13,1.1-25.7,0.6-38.7c-0.1-2.4,0.2-4.6,0.4-7c0-0.3-0.1-0.7-0.4-0.9l-0.4-0.3c-0.8-0.7-0.7-1,0.4-0.9c2.8,0.2,4.9-0.9,6.2-3.1
		c6.8-11.2,16.1-21.7,21.6-32.8c2.5-5.1,4.5-10.4,6.1-15.8c0.9-3.3-0.6-7.7-0.8-11.2c0-0.2-0.1-0.4-0.2-0.6c-1.4-1.9-1.9-5.2-4.5-6
		c-0.4-0.1-0.6-0.4-0.7-0.8c-0.2-1.1-0.8-1.6-1.9-1.5c-0.4,0-0.7,0.3-0.8,0.6c-0.5,1.2-1.4,1.4-2.5,0.7c-0.2-0.1-0.3-0.3-0.4-0.5
		l-0.8-1.8c-0.1-0.3-0.4-0.5-0.7-0.6c-0.6-0.1-0.8,0-0.9,0.4c0,0.2-0.2,0.5-0.4,0.5c-0.9,0.3-1.4,0.1-1.5-0.7c0-0.4-0.3-0.7-0.6-0.8
		c-3-1.1-6-1.4-9-0.8c-6.4,1.2-12.9,2-19.3,3.3c-0.2,0-0.3,0-0.5,0c-0.7-0.2-1.2,0-1.7,0.5c-0.1,0.2-0.3,0.3-0.5,0.3
		c-3.6,0.8-7.9,2.3-12.9,4.5c-13.8,6-26.3,13.1-37.4,21.4c-4.9,3.6-9.4,8.4-13.9,12.8c-0.2,0.2-0.3,0.4-0.3,0.6
		c-0.3,2.1-1.4,3.6-3.2,4.4c-0.5,0.2-1.1,0-1.3-0.5c-0.1-0.1-0.1-0.3-0.1-0.4l-0.3-12c0-0.3,0.1-0.6,0.4-0.8
		c1.9-1.4,1.6-2.5-0.8-3.3c-0.2-0.1-0.4-0.1-0.6,0c-14.1,4.4-5.8,20.1-5.7,29.7c0,0.4,0.2,0.7,0.5,0.9l0.6,0.3
		c0.3,0.2,0.5,0.5,0.5,0.9c0,2.7,0.4,5.2,1.2,7.7c1.3,3.6,0.9,6.9,2.9,10.5c0.1,0.2,0.1,0.4,0.1,0.6l-0.3,3.3c0,0.2,0,0.4,0.1,0.6
		l4.8,8.6c0.1,0.2,0.3,0.4,0.6,0.5c2.5,0.8,4.5,0,5.9-2.2c0.2-0.2,0.2-0.5,0.1-0.8c-1.4-4.6-2.3-9.4-2.8-14.2c0-0.3-0.1-0.5-0.3-0.7
		l-1.1-0.9c-0.2-0.2-0.4-0.5-0.3-0.8l0.7-8.1c0-0.2,0-0.4-0.1-0.6c-1.4-2.5,0.4-4.2,0.6-6.6c0.2-2.4,1.6-2.8,2.6-4.5
		c8-14.2,20.1-22,35-30.5c11.3-6.5,23.4-11.2,36.1-14.2c1.5-0.4,5.6-0.4,12.1-0.2c0.3,0,0.5-0.1,0.7-0.3c1.6-1.5,3.1-1.4,4.3,0.1
		c0.2,0.3,0.6,0.4,1,0.3l2.9-0.6c0.3-0.1,0.6,0,0.8,0.2c2.1,1.6,3.9,3.1,4.3,5.9c0.5,4.8,1.2,11.7-2,15.7c-2.1,2.6-2.8,6.2-4.6,9.2
		c-1.5,2.5-2.6,4.4-3.3,5.9c-3.1,6.7-7,13-11.7,18.7c-5.9,7.3-17.4,7.4-26.8,7.4c-2,0-5.2,1-9.6,2.9c-0.3,0.1-0.5,0-0.7-0.3
		c0-0.1,0-0.1,0-0.2v-0.3c0-0.6-0.5-1-1.1-0.9c-0.1,0-0.1,0-0.2,0c-2.5,0.6-4.9,1.5-7.2,2.6c-4,2-9.5,2.3-13.1,5.2
		c-0.2,0.2-0.5,0.3-0.8,0.2l-3.7-0.9c-0.4-0.1-0.9,0.1-1.1,0.5c-1.4,2.3-1.8,4.8-1.2,7.4c0,0.2,0,0.5-0.1,0.7
		c-0.7,1.4,1.6,9.7,2.1,11.2c2.2,5.6,4.6,10.6,6.4,16.6c1.3,4.2,3.6,7.8,7.1,10.5c0.2,0.1,0.3,0.2,0.5,0.2c3.7,0.3,7.3-0.3,10.6-1.7
		c0.3-0.1,0.6,0,0.7,0.3l0,0c0.2,0.4,0.5,0.6,1,0.6c3.2,0.2,6.4,0.4,9.7,0.7c0.7,0,0.9-0.2,0.5-0.8c-0.3-0.4-0.2-0.7,0.2-0.9
		c0.2-0.1,0.5-0.1,0.7,0l1.9,1.1c0.5,0.3,1.1,0.1,1.4-0.4c0-0.1,0.1-0.1,0.1-0.2l0.2-0.5C395.2,222.4,395.4,222.3,395.7,222.4z
		 M274.7,188.6c-0.3-0.6-5.2,0.5-5.4,0.5c-5.2,0.2-10.5,0.4-15.7,0.8c-0.6,0-1-0.4-1.1-0.9l0,0c-0.1-6.8-0.2-13.6-0.3-20.4
		c0-4.5,0.4-9,0.5-13.6c0-0.4-0.2-0.8-0.6-0.9c-0.8-0.3-0.8-0.8-0.1-1.2c0.3-0.2,0.4-0.5,0.4-0.8l0.2-9.3c0-0.5-0.4-1-0.9-1
		c-1.6-0.2-1.6-0.5,0-1c0.4-0.1,0.6-0.4,0.7-0.8c1.2-5.4-0.3-9.9-4.4-13.3c-0.2-0.1-0.4-0.2-0.6-0.2c-2.2-0.1-4.2,0.7-5.8,2.2
		c-0.2,0.2-0.3,0.5-0.3,0.8c0.1,4.2,0.9,9.1,1.1,12.6c1,15.4,0.7,30.7-0.9,46.1c-0.2,1.6,1.3,4.3-1.8,3.6c-0.2,0-0.4,0-0.6,0.1
		c-4.7,2.2-9.6,2-13.9,3.2c-7,2-15.7,3.5-21.6,7.9c-3.3,2.5-3.5,6-1.2,9.2c0.1,0.2,0.3,0.3,0.6,0.4c4.5,1.1,8.3,0,11.4-3.2
		c0.1-0.1,0.3-0.2,0.5-0.3c5-1.1,9.9-2.5,14.6-4.2c1.3-0.5,2.5-0.6,3.8-0.3c0.4,0.1,0.8-0.1,1-0.4l0.9-1.1c0.2-0.2,0.4-0.4,0.7-0.4
		l4.2-0.3c0.6,0,1,0.4,1.1,0.9v0.1c-0.2,2.7-0.4,5.5-0.8,8.2c-2.5,17.3-3.7,34.9-8.8,51.7c-0.4,1.3,0,2.4-0.4,3.8
		c-5.9,20.4-11.1,41.5-19.4,61.1c-0.6,1.4-0.4,3,1.2,3.3c0.4,0.1,0.7,0,0.9-0.3c2.7-3.2,5.1-7.1,7.2-11.8
		c4.1-9.5,7.6-18.1,10.4-25.8c3.1-8.4,5.6-18.5,8.5-27.8c0.2-0.5,0.3-2,0.5-4.6c0-0.2,0.1-0.4,0.2-0.5c1.7-2.1,1.2-4.4,1.7-6.4
		c0.9-3.6,1.7-7.3,2.3-11c0-0.2,0.1-0.3,0.2-0.5c1.1-1.4,1.6-2.9,1.5-4.6c0-0.8,0.5-3.4,1.7-1.4c0.1,0.2,0.2,0.4,0.1,0.5
		c0,1,0.1,1.7,0.2,2c6.6,12.5,14.2,24.4,24.4,32.7c4.2,3.5,7.4,0.2,7.6-4.2c0.3-9.7-1.1-19.3,0.6-30.9c1.3-8.7,2.4-16.9,5.7-26.8
		c0.4-1.1,3.2-6,3-8c0-0.3,0.1-0.6,0.3-0.8c3.2-3.2,3.7-6.9,1.4-11c-1.3-2.5-3.3-3.3-5.7-2.6c-4.1,1.2-7.6,1.7-10.8,1.4
		C275,189,274.8,188.8,274.7,188.6z M525.8,149.7c1.4,1.5,2.9,1.9,4.4,1.3c4-1.7,8-3.3,12.1-4.7c0.2-0.1,0.4-0.2,0.5-0.4
		c0.4-0.7,1-0.8,1.7-0.3c0.4,0.3,0.8,0.3,1.2,0l1.9-1.3c0.2-0.1,0.4-0.2,0.7-0.2c2.5,0.2,5.2-0.4,8.1-1.8c1.3-0.6,2.5-0.4,3.7,0.8
		c0.3,0.3,0.6,0.3,1,0.2l3.9-1.3c0.3-0.1,0.5-0.3,0.6-0.5c0.6-1.2,0.8-2.4,0.3-3.5c-0.2-0.5-0.8-0.8-1.3-0.6c-0.1,0-0.1,0.1-0.2,0.1
		l-0.3,0.2c-0.4,0.2-0.8,0.1-1.1-0.2c-3.6-5.1-7-3.3-12-3c-1.1,0.1-4,1.2-4.8,0.7c-0.3-0.2-0.7-0.2-1,0c-3.2,1.7-6.7,2.6-10.4,2.7
		c-0.2,0-0.4,0.1-0.5,0.2c-2.7,1.9-5.7,2.9-8.8,3.2c-0.3,0-0.5,0.2-0.7,0.4c-1.8,2-2.5,6.6,0.8,7.8
		C525.6,149.5,525.7,149.6,525.8,149.7z M401.8,142.9c0.3-0.5,0.3-0.9-0.2-1.2c-0.3-0.2-0.6-0.1-0.8,0.1c-1.1,1.1-1.9,1.8-3.6,1.7
		c-4.2-0.1-8.2,0.6-12,2.3c-0.2,0.1-0.4,0.1-0.6,0.1c-4.4-1-13.7,5.2-17.9,6.9c-1.9,0.8-3.8,1.7-5.6,2.8c-3,1.8-3.8,4.3-2.4,7.4
		c2.6,5.8,7.5,2,10.8-0.7c0.3-0.2,0.7-0.3,1-0.1c1,0.4,1.6,0.2,1.7-0.8c0.1-0.5,0.4-0.8,0.9-0.8c1.4-0.1,2.6-0.8,3.4-1.9
		c0.3-0.4,0.8-0.5,1.2-0.3c0.5,0.2,0.9,0,1.1-0.6c0.1-0.2,0.2-0.4,0.4-0.5c1.4-1,2.9-1.4,4.6-1.3c0.3,0,0.5-0.1,0.8-0.3
		c1.6-1.5,3.6-1.6,5.2-2.2c3.3-1.2,6.6-2.2,10.1-3c0.3-0.1,0.6,0,0.9,0.2l1.7,1.4c0.4,0.3,0.9,0.3,1.3,0l3.3-2.8
		c0.3-0.3,0.4-0.6,0.3-1c-0.5-1.9-1.5-3.5-3-4.7c-0.4-0.3-0.9-0.3-1.3,0c-0.2,0.1-0.3,0.2-0.5,0.3C401.3,144.4,401,144,401.8,142.9z
		 M116,217.3v-0.4c0-0.3-0.2-0.7-0.5-0.8c-1.6-1-2.7-0.9-3.6,0.3c-0.3,0.4-0.7,0.5-1.1,0.4c-1-0.3-2-0.7-2.9-1.1
		c-0.2-0.1-0.5-0.1-0.8-0.1L106,216c-0.3,0.1-0.6,0.1-0.8-0.1c-0.4-0.2-0.7-0.3-1.1-0.3c-0.5,0-0.9,0.5-0.9,1c0,0.8-0.5,0.9-1.7,0.2
		c-0.4-0.3-1-0.2-1.3,0.2l-0.5,0.6c-0.3,0.3-0.8,0.4-1.1,0.1c-0.1-0.1-0.1-0.2-0.2-0.3c-0.3-0.7-0.8-0.7-1.5,0
		c-0.3,0.3-0.7,0.4-1.1,0.2l-0.7-0.3c-0.2-0.1-0.4-0.1-0.6-0.1c-1.8,0.3-3.6,0.5-5.4,0.7c-3.1,0.4-6.4,2.1-10.3,1.8
		c-0.2,0-0.4,0-0.6,0.2c-2,1.3-4.1,2-6.5,2c-0.6,0-1-0.4-1-1c0-0.1,0-0.1,0-0.2c0.5-2.5,1.2-4.9,2.1-7.3c0.2-0.5,0.1-1-0.3-1.6
		c-0.2-0.3-0.3-0.7-0.1-1c0.9-1.8,1.7-3.6,1.8-5.6c0.6-7.5,2.3-15.2,2.2-22.5c0-4.3-0.9-9.1,0-13.3c0.1-0.4-0.1-0.8-0.4-1
		c-1.1-0.7-1.2-1.6-0.4-2.5c0.3-0.3,0.3-0.8,0.1-1.2c-1-1.5-1.2-3.3-0.7-5.1c0.1-0.2,0.1-0.4,0-0.6c-1.1-3.7,0.2-6-3.6-8.5
		c-0.3-0.2-0.6-0.2-0.9-0.1c-1.1,0.4-2.3,0.6-3.4,0.6c-2.5,0-3.5,0.9-3.1,3c1.5,6.9,2,13.9,3.1,20.9c0.5,3.3,0,6.5-1.4,9.7
		c-0.1,0.3-0.1,0.7,0.1,1c1.7,2.5,0.1,5.1-0.1,7.2c-0.1,1.6-0.3,3.1-0.4,4.7c-0.4,5.1-2,9.7-2.1,15c0,0.3-0.2,0.6-0.4,0.8
		c-2.1,1.4-0.8,3.1-1,4.7c-0.2,2.1-1.3,8.4-4.2,7.8c-0.3-0.1-0.5,0-0.8,0.2c-1.2,0.8-2,1.3-2.6,1.4c-4.1,0.8-8,2.2-11.7,4.2
		c-1.5,0.8-2.7,0.4-4.3,1.1c-5.3,2.2-10.7,4-16.3,5.4c-2,0.5-2.9,1.8-2.5,3.8c1.5,9.8,14.1,3.5,18.5,0.6c0.2-0.1,0.4-0.2,0.6-0.2
		c1.3,0.1,2.7-0.4,4.4-1.4c4.1-2.5,8.7-4.1,13.6-4.6c0.5-0.1,1,0.3,1.1,0.9c0,0.1,0,0.2,0,0.4c-8.6,33.2-18.7,65.9-30.3,98.1
		c-4.5,12.6-10.8,24.1-17,35.7c-0.8,1.5-0.8,2.9,0,4.2c0.2,0.4,0.7,0.5,1.1,0.4c8.9-2.2,21.4-32.7,24.7-41.4
		c5-13.4,9.6-25,14.1-40.4c4.4-15,8.9-28.1,13.7-42.4c0.2-0.5,0.8-0.8,1.3-0.6c0.1,0,0.3,0.1,0.4,0.2c2.2,2.2,16.1,13,15.9,17.5
		c0,0.3,0.1,0.6,0.3,0.8c2.9,2.5,3.6,5.6,6.2,8c4,3.7,6.3,6.1,6.9,7.4c1.5,3.1,3.8,5.6,6.8,7.4c0.3,0.2,0.7,0.2,1.1,0
		c5.2-3.3,2.8-8.2,4.8-13c0.1-0.3,0.1-0.6-0.1-0.9c-0.6-1-0.5-2,0.4-3c0.1-0.2,0.2-0.4,0.2-0.6c0.3-3.6,0.8-7.2,1.2-10.7
		c0-0.2,0-0.4-0.1-0.5l-0.8-2.1c-0.2-0.5,0-1,0.5-1.3c1-0.5,1.3-1.3,0.9-2.5c-0.1-0.2-0.1-0.3,0-0.5c0.6-3.3,1.8-5.9,2.3-9.5
		c0.4-2.8,2-4.6,2.3-7.2c0.1-1.2,0.3-2.3,0.5-3.5c0.1-0.3,0.2-0.6,0.5-0.7c1-0.6,1.3-1.3,0.8-2.3c-0.2-0.3-0.2-0.6,0-0.9
		c2.1-4.2,3.5-8.6,4.1-13.2c0-0.1,0-0.3,0-0.4c-0.8-2.4-1.9-3-3.4-1.8C116.3,218.1,116,218,116,217.3z M537.8,157.4
		c-0.3-1.4-4.1,1.7-4.7,2c-0.3,0.2-0.4,0.5-0.5,0.8c-0.2,3.1,0.9,5.5,3.4,7.2c0.2,0.2,0.5,0.2,0.8,0.1l22.8-6.3
		c0.4-0.1,0.9,0.1,1.1,0.4l0.8,1.2c0.1,0.2,0.3,0.2,0.4,0.1l0.3-0.2c0.2-0.1,0.2-0.3,0.2-0.5c-1.8-5.9,13.2,3.4,7.6-7.8
		c-0.1-0.3-0.4-0.5-0.8-0.6c-1.8-0.2-3.2-1.1-4.1-2.6c-0.2-0.4-0.7-0.6-1.2-0.4l-10,3.3c-0.5,0.2-1,0-1.2-0.5
		c-0.7-1.3-1.8-0.5-2.6,0.3c-1.4,1.4-3.2,1.9-5.2,1.4c-0.2,0-0.4,0-0.6,0.1l-5.7,2.3C538.3,157.8,537.9,157.7,537.8,157.4
		C537.8,157.5,537.8,157.5,537.8,157.4z M137.7,251.7c7.7-6.3,16-17.6,21.8-26.9c0.1-0.1,0.1-0.2,0.2-0.2c1.1-1.4,1.7-1.2,1.8,0.6
		c0.3,11.1,0.8,22.2,1.7,33.2c0.2,3.1-0.2,9.7,1.3,13.7c0.4,1,0.5,1.9,0.3,2.5c-0.1,0.2-0.1,0.4,0,0.6c1.7,5.1,3.9,10,6.6,14.7
		c0.1,0.2,0.3,0.4,0.6,0.5c3.1,0.9,5.1,0.2,6.1-1.9c1.6-3.4-1.4-8.5-3.5-11.4c-0.2-0.2-0.2-0.5-0.1-0.8c0.2-0.7,0-1.2-0.6-1.5
		c-0.2-0.1-0.4-0.4-0.5-0.6c-0.7-3.1-1.1-6.2-1.1-9.3c0.1-9.2-0.4-18.2-0.8-27.4c-0.3-6.6,0.6-14.9-0.6-22.6
		c-1-6.4,2.1-12.9,3.9-18.8c0.5-1.6,1.4-2.6,2-4.3c0.5-1.5,0.9-2.5,1.3-3.2c3.6-6.3,6.3-13,8.1-20.2c0.5-1.9-0.1-3.3-1.6-4.2
		l-3.2-1.9c-1.4-0.8-2.5-0.4-3.2,1.1c-2.1,4.3-3.9,8.8-5.2,13.5c-0.2,0.7-0.6,1.4-1.2,2.2c-0.1,0.2-0.2,0.3-0.2,0.5
		c-0.1,1.3-0.6,2.3-1.4,3.1c-0.3,0.3-0.4,0.7-0.3,1l0.1,0.3c0.1,0.4,0,0.8-0.3,1.1l-1.4,1.1c-0.2,0.2-0.3,0.4-0.4,0.6l-0.6,3.7
		c0,0.2-0.1,0.4-0.3,0.6c-1.1,1-1.7,2.3-1.9,3.8c0,0.3-0.2,0.6-0.4,0.7l-1.8,1.2c-0.2,0.1-0.3,0.3-0.4,0.5
		c-3.5,10.2-9.6,20.3-15,29.7c-5,8.6-10.7,15.4-17.2,23.5C125.7,256,136.6,252.6,137.7,251.7z M517.2,195.3
		c-2.5,1.1,3.1,13.9,4.1,15.9c1.1,2.1,1.6,3.4,1.7,4c1.2,7.1,3.9,13.6,8,19.6c0.3,0.4,0.8,0.5,1.2,0.4l3.1-1.2
		c0.4-0.2,0.7-0.6,0.6-1.1c-1.1-5.6-1.6-11.3-1.6-17c0-0.2,0-0.4-0.1-0.5l-1.9-3.2c-0.3-0.5-0.1-1,0.3-1.3c1.6-1.1,1.9-2.6,0.9-4.6
		c-0.1-0.3-0.1-0.6,0-0.9c1-2.2,1.4-4.6,1.2-7.1c0-0.2,0-0.4,0.1-0.6c4.5-7.3,12.2-9.8,19.8-12.8c1-0.4,3.9-0.5,8.6-0.4
		c3.9,0.1,6.4,1.4,8.5,4.4c0.2,0.3,0.2,0.6,0.1,0.9c-1.2,3.2-4,4.8-6.5,7.4c-0.9,0.9-1.8,2-2.9,3.5c-5.9,8-13.1,14.7-21.6,20
		c-1.4,0.8-1.7,2.1-1.1,3.9l1.6,4.4c0.1,0.3,0.4,0.6,0.7,0.6c0.6,0.1,1.3,0.2,1.9,0.3c4.5,0.2,8.8,1.8,13.5,2
		c2.4,0.1,4.1-1.3,6.2-1.4c6.2-0.3,18.9-0.9,27,1.6c3.6,1.1,4.9,0.2,4.1-2.7l-1.4-5c-0.1-0.5-0.7-0.8-1.2-0.7
		c-0.1,0-0.2,0.1-0.3,0.2l-0.4,0.3c-0.3,0.3-0.8,0.3-1.2,0c-1.6-1-2.5-2.1-4.5-2.3c-9.2-0.9-17.7-1-25.7-0.3
		c-2.4,0.2-2.8-0.6-1.2-2.4c3.8-4.5,7.7-8.3,11.2-12.6c2.6-3.2,6-4.8,8.4-8.9c3.5-6.1,5.8-11.7-1.1-16.8c-6.1-4.5-12.8-7.2-20.3-5.7
		c-6.2,1.3-11.4,2.4-17.3,4.7c-0.5,0.2-0.7,0.7-0.6,1.2c0.4,1.5,0,1.7-1.2,0.7c-0.3-0.3-0.8-0.3-1.1-0.1l-4.1,2.2
		c-0.2,0.1-0.3,0.2-0.4,0.4l-4.9,8.2c-0.2,0.3-0.2,0.7,0,1.1c0.9,1.3,0.3,2-1.8,2.2c-0.3,0-0.5-0.1-0.8-0.2l-5.1-4.3
		c-0.3-0.2-0.7-0.3-1-0.2c-1.6,0.7-2,1.7-1.2,3.3C517.8,194.6,517.6,195.1,517.2,195.3L517.2,195.3z M423.5,230.9
		c-0.2-0.4-0.3-0.4-0.5-0.1c-0.1,0.2-0.3,0.4-0.6,0.5c-9.8,2-18.2,3.6-25,4.7c-0.9,0.1-1.6,0.4-2.3,0.9c-0.4,0.2-0.8,0.2-1.2-0.1
		c-0.5-0.4-1.1-0.4-1.6,0.2c-0.2,0.2-0.4,0.3-0.7,0.3c-5.8,0.2-11.9,2-16.9,2.8c-12.9,2.1-24.7,6.4-35.5,13
		c-6.1,3.7-0.7,9.1,4.2,9.6c0.5,0,0.9-0.3,1.1-0.7l0.1-0.5c0.1-0.4,0.5-0.7,1-0.7c1.2,0,2.1-0.5,2.5-1.6c0.1-0.2,0.3-0.4,0.5-0.5
		l4.7-1.9c0.1,0,0.2-0.1,0.3-0.1c2.5-0.2,4.1-1.6,6.2-2.2c14.5-3.9,29.1-6.9,44-9c0.1,0,0.2-0.1,0.4-0.1l1.7-0.9
		c0.3-0.2,0.6-0.2,0.9,0c2.3,1,3.9,0.7,5-1.1c0.2-0.3,0.5-0.5,0.8-0.5c4.8-0.2,14.5-0.2,15.7-1.7c0.2-0.2,0.4-0.3,0.6-0.4
		c3.2-0.4,6.5-0.7,9.8-0.9c5.1-0.3,10.6-1.2,16-1.3c0.2,0,0.4,0.1,0.6,0.2l2.5,1.7c0.5,0.3,0.6,0.9,0.2,1.4c0,0,0,0.1-0.1,0.1
		l-0.3,0.3c-0.4,0.4-0.3,1.1,0.1,1.4c0.1,0.1,0.2,0.1,0.3,0.2c0.8,0.3,1.3,0.9,1.4,1.8c0.1,0.4,0.3,0.7,0.6,0.8
		c1.8,0.7,2.7,0.4,2.5-0.9c0-0.5,0.3-1,0.8-1.1c2.3-0.4,3.8-1.5,4.6-3.4c0.6-1.7,0.4-3.4-0.8-5.2c-1.7-2.6-4.2-4.3-7.4-5
		c-0.4-0.1-0.8,0.1-0.9,0.5c-0.2,0.5-0.5,0.7-1,0.5c-0.3-0.1-0.5-0.5-0.4-0.8c0-0.1,0.1-0.2,0.2-0.2c0.3-0.3,0.3-0.6-0.2-0.9
		c-0.3-0.3-0.8-0.2-1.1,0.2l-0.8,1c-0.5,0.6-0.8,0.6-0.9-0.2l-0.1-0.3c-0.1-0.4-0.5-0.7-0.9-0.7c-0.1,0-0.2,0-0.3,0.1l-0.5,0.3
		c-0.4,0.2-0.8,0.1-1.1-0.1l-0.2-0.2c-0.3-0.3-0.8-0.3-1.1,0.1c0,0,0,0.1-0.1,0.1l-0.2,0.2c-0.2,0.3-0.6,0.4-0.9,0.2
		c-0.1-0.1-0.2-0.1-0.2-0.2c-0.6-1.1-1.3-1.2-1.9-0.4c-0.3,0.4-1,0.5-1.4,0.2l0,0c-0.9-0.8-1.6-0.5-2.2,1c-0.3,0.6-0.6,0.7-0.9,0
		l-0.2-0.3c-0.2-0.3-0.5-0.5-0.9-0.5h-2.9c-0.4,0-0.8,0.3-1,0.7c-0.5,1.4-1,1.6-1.6,0.4c-0.2-0.5-0.8-0.7-1.3-0.5l0,0l-0.8,0.4
		c-0.3,0.2-0.7,0.1-1-0.1c-0.9-0.6-1.8-0.5-2.7,0.3c-0.2,0.2-0.4,0.3-0.6,0.3l-5.3,0.1C424,231.5,423.6,231.3,423.5,230.9z"/>
	<path class="st2" d="M529.5,61.5c0.6-0.8,1.3-1,2.2-0.6c1.2,0.5,1.8,0.8,1.9,0.8c4.1,1.1,7.7,3.3,10.5,6.5c0.4,0.4,0.3,1,0,1.4
		l-2.2,2.2c-0.3,0.3-0.9,0.4-1.2,0.1c-1.1-0.7-2.2-0.7-3.3,0c-0.4,0.2-0.9,0.2-1.2-0.1l-0.4-0.4c-0.2-0.2-0.4-0.3-0.6-0.3L524.8,70
		c-0.3,0-0.5-0.2-0.7-0.4l-0.4-0.5c-0.1-0.2-0.3-0.3-0.5-0.4l-5.2-1.5c-0.5-0.1-0.8-0.6-0.7-1.1c0.6-4.1,2.8-8.5,7.6-6.6
		c0.2,0.1,0.4,0.1,0.6,0c0.9-0.2,1.7-0.1,2.5,0.2c0.4,0.2,0.6,0.5,0.6,0.9v0.5C528.5,62.2,528.8,62.3,529.5,61.5z"/>
	<path class="st2" d="M370.5,87.5h0.7c0.5,0,0.9,0.4,1,0.9c0.2,3.5,1.3,11.3-4.9,10c-0.3-0.1-0.6-0.3-0.7-0.7
		c-1.6-4.8-3.8-9.5-5.1-14.3c-0.4-1.3-1.3-2-1.7-3.2c-0.7-2.2-1.4-4.3-1.9-6.5c-0.1-0.3,0-0.6,0.2-0.8c1.7-2.3,3.9-3.4,6.9-3.3
		c0.2,0,0.5,0.1,0.6,0.3c1.1,1,1.5,2.2,1.3,3.7c0,0.2,0,0.4,0.1,0.6c0.4,0.9,2.1,5.6,2.8,6c0.3,0.1,0.5,0.4,0.4,0.8
		c0,0.5-0.3,0.8-0.7,1.1c-0.2,0.1-0.4,0.3-0.5,0.6c-0.5,1.7-0.2,3.2,0.9,4.7C369.9,87.3,370.2,87.5,370.5,87.5z"/>
	<path class="st2" d="M553.5,89.8c1.4-0.4,2.5-1.2,3.3-2.4c0.1-0.2,0.3-0.3,0.4-0.4c2.6-1.2,5.3-1.8,8.2-2c0.2,0,0.5-0.1,0.6-0.3
		c0.2-0.2,0.3-0.3,0.6-0.4c5.7-1.1,11.1-3.5,16.8-4.3c9.9-1.4,19.7-3.3,29.7-4.4c4.7-0.5,10.1,0,15.3-0.6c1.9-0.2,3.3,0,4.3,0.6
		c2.3,1.4,2.9,3.7,2,6.9c-0.1,0.2-0.2,0.4-0.3,0.5c-0.9,0.7-1.5,1.6-1.8,2.7c-0.1,0.5-0.7,0.9-1.2,0.8c-2-0.4-3.8,0-5.3,1.4
		c-0.1,0.1-0.3,0.2-0.5,0.2c-1.8,0.3-3.2-0.2-4.3-1.4c-0.2-0.3-0.6-0.4-0.9-0.3c-1.1,0.2-1.8-0.2-2-1.2c-0.1-0.5-0.6-0.8-1.1-0.8
		l-1.6,0.2c-0.2,0-0.4,0-0.6-0.1c-2-0.9-3.7-0.7-5.1,0.8c-0.2,0.2-0.4,0.3-0.7,0.3c-9.3,0.4-18.5,1.8-27.4,4.2
		c-0.1,0-1.5,0.3-4.2,0.8c-2.1,0.4-3.7,1.5-5.5,1.9c-7.5,1.8-14.9,3.7-22.3,5.7c-1.5,0.4-4-0.2-5.5,1.5c-0.2,0.2-0.5,0.3-0.7,0.4
		c-3.3,0.1-6,1.4-8.2,3.9c-0.2,0.2-0.5,0.3-0.7,0.3h-4.5c-0.3,0-0.5,0.1-0.7,0.3c-2.5,2.5-4.9,2.8-7.9,4
		c-12.3,4.9-25.7,10.6-35.7,19.4c-0.2,0.2-0.4,0.2-0.6,0.2c-5.6,0.1-8.1-2.7-7.8-8.2c0-0.3,0.1-0.5,0.3-0.7c2.7-2.6,5.5-4.6,8.5-6
		c23.4-11.4,43.6-19,66.5-25.4c0.5-0.1,0.6,0,0.4,0.5l-0.2,0.3C552.5,89.8,552.7,90,553.5,89.8z"/>
	<path class="st2" d="M395.1,222.7l-0.2,0.5c-0.2,0.5-0.7,0.8-1.3,0.6c-0.1,0-0.1,0-0.2-0.1l-1.9-1.1c-0.2-0.1-0.5-0.1-0.7,0
		c-0.4,0.2-0.5,0.5-0.2,0.9c0.4,0.6,0.3,0.9-0.5,0.8c-3.3-0.2-6.5-0.4-9.7-0.7c-0.5,0-0.8-0.2-1-0.6c-0.1-0.3-0.4-0.4-0.7-0.3l0,0
		c-3.3,1.5-6.9,2-10.6,1.7c-0.2,0-0.4-0.1-0.5-0.2c-3.5-2.8-5.9-6.3-7.1-10.5c-1.8-6-4.2-11-6.4-16.6c-0.6-1.4-2.8-9.8-2.1-11.2
		c0.1-0.2,0.1-0.4,0.1-0.7c-0.5-2.6-0.1-5.1,1.2-7.4c0.2-0.4,0.7-0.6,1.1-0.5l3.7,0.9c0.3,0.1,0.6,0,0.8-0.2
		c3.6-2.9,9.1-3.2,13.1-5.2c2.3-1.2,4.7-2,7.2-2.6c0.5-0.1,1.1,0.2,1.2,0.7c0,0,0,0.1,0,0.2v0.3c0,0.3,0.3,0.5,0.5,0.5
		c0.1,0,0.1,0,0.2,0c4.4-2,7.6-2.9,9.6-2.9c9.4,0,20.9-0.1,26.8-7.4c4.7-5.8,8.6-12,11.7-18.7c0.7-1.5,1.8-3.4,3.3-5.9
		c1.8-2.9,2.5-6.5,4.6-9.2c3.1-4,2.5-10.9,2-15.7c-0.3-2.8-2.2-4.3-4.3-5.9c-0.2-0.2-0.5-0.2-0.8-0.2l-2.9,0.6
		c-0.4,0.1-0.7-0.1-1-0.3c-1.3-1.5-2.7-1.6-4.3-0.1c-0.2,0.2-0.4,0.3-0.7,0.3c-6.6-0.2-10.6-0.2-12.1,0.2
		c-12.7,3-24.7,7.7-36.1,14.2c-14.9,8.5-27,16.3-35,30.5c-1,1.7-2.4,2.1-2.6,4.5s-2,4.1-0.6,6.6c0.1,0.2,0.1,0.4,0.1,0.6l-0.7,8.1
		c0,0.3,0.1,0.6,0.3,0.8l1.1,0.9c0.2,0.2,0.3,0.4,0.3,0.7c0.5,4.8,1.4,9.5,2.8,14.2c0.1,0.3,0,0.6-0.1,0.8c-1.4,2.2-3.4,2.9-5.9,2.2
		c-0.2-0.1-0.5-0.2-0.6-0.5l-4.8-8.6c-0.1-0.2-0.1-0.4-0.1-0.6l0.3-3.3c0-0.2,0-0.4-0.1-0.6c-2-3.6-1.6-6.9-2.9-10.5
		c-0.9-2.5-1.3-5.1-1.2-7.7c0-0.4-0.2-0.7-0.5-0.9l-0.6-0.3c-0.3-0.2-0.5-0.5-0.5-0.9c-0.1-9.6-8.4-25.3,5.7-29.7
		c0.2-0.1,0.4-0.1,0.6,0c2.4,0.8,2.6,1.9,0.8,3.3c-0.3,0.2-0.4,0.5-0.4,0.8l0.3,12c0,0.6,0.5,1,1,1c0.1,0,0.3,0,0.4-0.1
		c1.8-0.9,2.9-2.4,3.2-4.4c0-0.2,0.1-0.4,0.3-0.6c4.6-4.4,9-9.1,13.9-12.8c11.1-8.3,23.6-15.4,37.4-21.4c5-2.2,9.3-3.6,12.9-4.5
		c0.2-0.1,0.4-0.2,0.5-0.3c0.4-0.5,1-0.7,1.7-0.5c0.2,0,0.3,0.1,0.5,0c6.4-1.3,12.9-2.1,19.3-3.3c3-0.6,6-0.3,9,0.8
		c0.4,0.1,0.6,0.4,0.6,0.8c0.1,0.8,0.6,1.1,1.5,0.7c0.2-0.1,0.4-0.3,0.4-0.5c0-0.4,0.3-0.6,0.9-0.4c0.3,0.1,0.5,0.3,0.7,0.6l0.8,1.8
		c0.1,0.2,0.2,0.3,0.4,0.5c1.2,0.7,2,0.4,2.5-0.7c0.1-0.3,0.5-0.6,0.8-0.6c1.1-0.1,1.8,0.4,1.9,1.5c0.1,0.4,0.3,0.7,0.7,0.8
		c2.6,0.8,3,4.1,4.5,6c0.1,0.2,0.2,0.4,0.2,0.6c0.2,3.5,1.8,7.9,0.8,11.2c-1.6,5.5-3.6,10.8-6.1,15.8c-5.4,11.1-14.8,21.6-21.6,32.8
		c-1.3,2.2-3.4,3.3-6.2,3.1c-1.1-0.1-1.2,0.2-0.4,0.9l0.4,0.3c0.3,0.2,0.4,0.5,0.4,0.9c-0.2,2.4-0.5,4.6-0.4,7
		c0.5,13,1.1,25.7-0.6,38.7c0,0.4-0.3,0.7-0.6,0.8c-1.7,0.6-2.9,1.7-3.6,3.1c-0.3,0.5-0.9,0.7-1.4,0.4c-0.1,0-0.2-0.1-0.2-0.2
		l-2-1.9c-0.4-0.4-0.9-0.4-1.3-0.1c-0.2,0.2-0.4,0.4-0.7,0.5c-1.4,0.9-6.5,1.2-8.4,1.5c-0.2,0-0.3,0-0.5,0l-0.8-0.3
		C395.4,222.3,395.2,222.4,395.1,222.7z M372.6,182.7c-4.2,0.3-7,2.4-8.3,6.4c-0.1,0.3-0.3,0.5-0.5,0.6c-3,1.5-1.1,4.5,0.6,6.5
		c0.2,0.2,0.5,0.4,0.8,0.4c8-0.3,15.8-1.6,23.5-3.8c1.1-0.3,1.4-0.2,1.9,0.7c0.2,0.4,0.6,0.6,1.1,0.6c4.6-0.7,9.1-2.1,13.4-4.1
		c0.4-0.2,0.6-0.5,0.6-0.9l-0.1-9.9c0-0.6-0.5-1-1-1l0,0c-3.9,0.2-6.9,0.3-9.1,0.2c-0.3,0-0.8-0.2-1.4-0.5c-0.2-0.1-0.5-0.2-0.8-0.1
		c-3.5,1.2-6.8,1.1-10.5,2.1c-2.3,0.7-4.7,0.9-7.2,0.7c-0.3,0-0.7,0.1-0.9,0.4l-1.2,1.5C373.1,182.5,372.9,182.7,372.6,182.7z
		 M406,210.2c1.5-0.8,1.9-2,1-3.6c-0.1-0.2-0.2-0.5-0.1-0.8l0.5-1.4c0.2-0.5,0-1-0.5-1.2c-1.1-0.6-1.6-1.3-1.6-2.3c0-0.6-0.5-1-1-1
		c-0.1,0-0.2,0-0.3,0.1c-0.8,0.3-1.6,0.5-2.5,0.5c-1.6,0.1-2.7,0.3-3.4,0.5c-8.7,2.6-17.6,4.6-26.7,5.9c-0.5,0.1-0.9,0.6-0.9,1.1
		c0,0.1,0,0.1,0,0.2l1.4,4.4c0.1,0.4,0.5,0.7,0.9,0.7c3.8,0.3,7.6,0.4,11.5,0.5c0.7,0,1.2,0.4,1.6,1.2c0.2,0.4,0.6,0.6,1,0.6
		c2.6-0.2,5.3,0.4,7.9-0.4c3.6-1.1,6.5-1.1,9.9-1.8c0.5-0.1,0.8-0.5,0.8-1v-1.2C405.5,210.7,405.7,210.4,406,210.2z"/>
	<path class="st2" d="M275.2,189c3.1,0.3,6.7-0.2,10.8-1.4c2.5-0.7,4.4,0.1,5.7,2.6c2.2,4.1,1.8,7.8-1.4,11
		c-0.2,0.2-0.3,0.5-0.3,0.8c0.2,2-2.6,6.9-3,8c-3.3,9.9-4.4,18.1-5.7,26.8c-1.7,11.6-0.3,21.2-0.6,30.9c-0.2,4.4-3.3,7.7-7.6,4.2
		c-10.2-8.3-17.8-20.1-24.4-32.7c-0.2-0.3-0.3-1-0.2-2c0-0.2-0.1-0.4-0.1-0.5c-1.2-2-1.7,0.6-1.7,1.4c0.1,1.7-0.4,3.3-1.5,4.6
		c-0.1,0.1-0.2,0.3-0.2,0.5c-0.6,3.7-1.4,7.4-2.3,11c-0.5,2,0,4.3-1.7,6.4c-0.1,0.2-0.2,0.3-0.2,0.5c-0.2,2.6-0.4,4.1-0.5,4.6
		c-2.9,9.3-5.4,19.4-8.5,27.8c-2.8,7.7-6.3,16.3-10.4,25.8c-2.1,4.7-4.5,8.6-7.2,11.8c-0.2,0.3-0.6,0.4-0.9,0.3
		c-1.7-0.3-1.8-2-1.2-3.3c8.2-19.6,13.5-40.7,19.4-61.1c0.4-1.4,0-2.5,0.4-3.8c5.1-16.8,6.3-34.4,8.8-51.7c0.4-2.7,0.7-5.4,0.8-8.2
		c0-0.6-0.4-1-0.9-1.1h-0.1l-4.2,0.3c-0.3,0-0.6,0.2-0.7,0.4l-0.9,1.1c-0.2,0.3-0.6,0.4-1,0.4c-1.3-0.3-2.6-0.2-3.8,0.3
		c-4.8,1.7-9.7,3.2-14.6,4.2c-0.2,0-0.4,0.1-0.5,0.3c-3.1,3.2-6.9,4.3-11.4,3.2c-0.2-0.1-0.4-0.2-0.6-0.4c-2.2-3.2-2.1-6.7,1.2-9.2
		c5.9-4.4,14.6-5.9,21.6-7.9c4.3-1.2,9.2-1,13.9-3.2c0.2-0.1,0.4-0.1,0.6-0.1c3.1,0.7,1.6-2,1.8-3.6c1.6-15.3,1.8-30.7,0.9-46.1
		c-0.2-3.6-1-8.4-1.1-12.6c0-0.3,0.1-0.6,0.3-0.8c1.6-1.5,3.5-2.3,5.8-2.2c0.2,0,0.4,0.1,0.6,0.2c4.1,3.5,5.5,7.9,4.4,13.3
		c-0.1,0.4-0.4,0.7-0.7,0.8c-1.7,0.5-1.7,0.8,0,1c0.5,0.1,0.9,0.5,0.9,1l-0.2,9.3c0,0.3-0.2,0.6-0.4,0.8c-0.7,0.5-0.6,0.9,0.1,1.2
		c0.4,0.2,0.6,0.5,0.6,0.9c-0.1,4.6-0.5,9.1-0.5,13.6c0,6.8,0.1,13.6,0.3,20.4c0,0.6,0.5,1,1,1l0,0c5.2-0.3,10.5-0.6,15.7-0.8
		c0.2,0,5.1-1.1,5.4-0.5C274.8,188.8,275,189,275.2,189z M257.1,241.7c4.8,5.3,7.8,11.1,12.8,15.9c1.2,1.1,1.8,0.9,1.7-0.8
		c-0.5-9.7,0.1-19.3,1.6-28.9c0.3-1.9,0.4-3.8,0.3-5.7c0-0.2,0-0.3,0.1-0.5c1.7-3.5,1.7-7.3,2.8-10.5c1.1-3.1,1.9-5.3,2.6-6.8
		c2-4.7,0.6-6.5-4.2-5.2c-0.3,0.1-0.6,0-0.8-0.1c-2.7-1.7-5.5,1.2-7.5,1.1c-4.6-0.1-9.2-0.1-13.7,0.2c-1.5,0.1-2.3,1-2.3,2.8
		c0,4.1-0.2,8.2-0.7,12.3s-2.7,7.7-0.4,11.7c1.7,2.9,3.3,5.8,5,8.8C255.3,237.8,255.5,239.9,257.1,241.7z"/>
	<path class="st2" d="M525.5,149.5c-3.3-1.2-2.6-5.8-0.8-7.8c0.2-0.2,0.4-0.3,0.7-0.4c3.2-0.3,6.1-1.4,8.8-3.2
		c0.2-0.1,0.3-0.2,0.5-0.2c3.8-0.1,7.2-1,10.4-2.7c0.3-0.2,0.7-0.2,1,0c0.8,0.4,3.7-0.7,4.8-0.7c5.1-0.3,8.4-2.2,12,3
		c0.2,0.4,0.7,0.4,1.1,0.2l0.3-0.2c0.5-0.3,1.1-0.2,1.4,0.3c0,0.1,0.1,0.1,0.1,0.2c0.4,1.1,0.3,2.3-0.3,3.5
		c-0.1,0.2-0.3,0.4-0.6,0.5l-3.9,1.3c-0.4,0.1-0.7,0-1-0.2c-1.2-1.1-2.4-1.4-3.7-0.8c-2.9,1.4-5.6,2-8.1,1.8c-0.2,0-0.5,0.1-0.7,0.2
		l-1.9,1.3c-0.4,0.3-0.8,0.3-1.2,0c-0.7-0.5-1.2-0.4-1.7,0.3c-0.1,0.2-0.3,0.3-0.5,0.4c-4.1,1.4-8.1,3-12.1,4.7
		c-1.5,0.6-3,0.2-4.4-1.3C525.7,149.6,525.6,149.5,525.5,149.5z"/>
	<path class="st2" d="M402.6,143.9c0.2-0.1,0.3-0.2,0.5-0.3c0.4-0.3,0.9-0.3,1.3,0c1.5,1.3,2.5,2.8,3,4.7c0.1,0.4,0,0.8-0.3,1
		l-3.3,2.8c-0.4,0.3-0.9,0.3-1.3,0l-1.7-1.4c-0.2-0.2-0.6-0.3-0.9-0.2c-3.4,0.8-6.8,1.8-10.1,3c-1.6,0.6-3.6,0.7-5.2,2.2
		c-0.2,0.2-0.5,0.3-0.8,0.3c-1.7-0.1-3.2,0.3-4.6,1.3c-0.2,0.1-0.3,0.3-0.4,0.5c-0.2,0.6-0.6,0.8-1.1,0.6c-0.4-0.2-0.9,0-1.2,0.3
		c-0.8,1.1-2,1.8-3.4,1.9c-0.5,0-0.8,0.4-0.9,0.8c-0.2,1-0.7,1.3-1.7,0.8c-0.3-0.2-0.7-0.1-1,0.1c-3.3,2.7-8.2,6.5-10.8,0.7
		c-1.4-3.1-0.6-5.6,2.4-7.4c1.8-1.1,3.6-2,5.6-2.8c4.2-1.7,13.4-7.9,17.9-6.9c0.2,0,0.4,0,0.6-0.1c3.8-1.7,7.8-2.5,12-2.3
		c1.7,0.1,2.5-0.7,3.6-1.7c0.2-0.2,0.6-0.2,0.8-0.1c0.4,0.3,0.5,0.7,0.2,1.2C401,144,401.3,144.4,402.6,143.9z"/>
	<path class="st2" d="M116.8,217.7c1.5-1.2,2.6-0.6,3.4,1.8c0,0.1,0.1,0.3,0,0.4c-0.6,4.6-1.9,9-4.1,13.2c-0.2,0.3-0.1,0.6,0,0.9
		c0.5,1,0.3,1.7-0.8,2.3c-0.3,0.1-0.5,0.4-0.5,0.7c-0.2,1.2-0.3,2.3-0.5,3.5c-0.3,2.6-1.8,4.5-2.3,7.2c-0.6,3.6-1.8,6.2-2.3,9.5
		c0,0.2,0,0.3,0,0.5c0.4,1.2,0.1,2-0.9,2.5c-0.5,0.2-0.7,0.8-0.5,1.3l0.8,2.1c0.1,0.2,0.1,0.3,0.1,0.5c-0.5,3.6-0.9,7.1-1.2,10.7
		c0,0.2-0.1,0.4-0.2,0.6c-0.9,0.9-1,1.9-0.4,3c0.2,0.3,0.2,0.6,0.1,0.9c-2.1,4.9,0.3,9.7-4.8,13c-0.3,0.2-0.7,0.2-1.1,0
		c-3-1.8-5.2-4.3-6.8-7.4c-0.6-1.3-2.9-3.7-6.9-7.4c-2.6-2.4-3.3-5.6-6.2-8c-0.2-0.2-0.4-0.5-0.3-0.8c0.2-4.5-13.7-15.3-15.9-17.5
		c-0.4-0.4-1-0.4-1.4,0c-0.1,0.1-0.2,0.2-0.2,0.4c-4.8,14.3-9.3,27.5-13.7,42.4c-4.5,15.4-9.1,27.1-14.1,40.4
		c-3.3,8.7-15.8,39.2-24.7,41.4c-0.4,0.1-0.8-0.1-1.1-0.4c-0.8-1.3-0.9-2.7,0-4.2c6.3-11.6,12.5-23.2,17-35.7
		c11.6-32.2,21.7-64.9,30.3-98.1c0.1-0.5-0.2-1.1-0.7-1.2c-0.1,0-0.2,0-0.4,0c-4.9,0.5-9.4,2.1-13.6,4.6c-1.7,1-3.1,1.5-4.4,1.4
		c-0.2,0-0.4,0-0.6,0.2c-4.4,2.9-17,9.2-18.5-0.6c-0.3-2,0.5-3.3,2.5-3.8c5.6-1.4,11-3.2,16.3-5.4c1.6-0.7,2.8-0.3,4.3-1.1
		c3.7-2,7.6-3.3,11.7-4.2c0.5-0.1,1.4-0.6,2.6-1.4c0.2-0.2,0.5-0.2,0.8-0.2c2.9,0.6,4-5.6,4.2-7.8c0.2-1.6-1.1-3.3,1-4.7
		c0.3-0.2,0.4-0.5,0.4-0.8c0.1-5.3,1.7-9.9,2.1-15c0.1-1.6,0.2-3.1,0.4-4.7c0.2-2.1,1.8-4.7,0.1-7.2c-0.2-0.3-0.2-0.7-0.1-1
		c1.5-3.1,1.9-6.4,1.4-9.7c-1.1-7-1.6-13.9-3.1-20.9c-0.4-2,0.6-3,3.1-3c1.2,0,2.3-0.2,3.4-0.6c0.3-0.1,0.7-0.1,0.9,0.1
		c3.8,2.5,2.5,4.8,3.6,8.5c0.1,0.2,0.1,0.4,0,0.6c-0.5,1.9-0.3,3.6,0.7,5.1c0.2,0.4,0.2,0.9-0.1,1.2c-0.8,1-0.7,1.8,0.4,2.5
		c0.3,0.2,0.5,0.6,0.4,1c-0.8,4.2,0,9,0,13.3c0.1,7.3-1.7,15.1-2.2,22.5c-0.2,2.1-1,3.8-1.8,5.6c-0.2,0.3-0.1,0.7,0.1,1
		c0.4,0.6,0.5,1.1,0.3,1.6c-0.9,2.4-1.7,4.8-2.1,7.3c-0.1,0.5,0.3,1.1,0.8,1.2c0.1,0,0.1,0,0.2,0c2.4,0,4.5-0.7,6.5-2
		c0.2-0.1,0.4-0.2,0.6-0.2c3.9,0.3,7.2-1.4,10.3-1.8c1.8-0.2,3.6-0.5,5.4-0.7c0.2,0,0.4,0,0.6,0.1l0.7,0.3c0.4,0.2,0.8,0.1,1.1-0.2
		c0.7-0.7,1.2-0.7,1.5,0c0.2,0.4,0.7,0.6,1.1,0.4c0.1,0,0.2-0.1,0.3-0.2l0.5-0.6c0.3-0.4,0.9-0.4,1.3-0.2c1.1,0.7,1.7,0.6,1.7-0.2
		c0-0.5,0.4-1,0.9-1c0.3,0,0.7,0.1,1.1,0.3c0.3,0.2,0.6,0.2,0.8,0.1l1.1-0.4c0.3-0.1,0.5-0.1,0.8,0.1c0.9,0.5,1.9,0.8,2.9,1.1
		c0.4,0.1,0.9,0,1.1-0.4c0.8-1.2,2-1.3,3.6-0.3c0.3,0.2,0.5,0.5,0.5,0.8v0.4C116,218,116.3,218.1,116.8,217.7z M97.5,225.1
		c-1-1.1-2-0.9-2.9,0.7c-0.2,0.3-0.5,0.5-0.8,0.5c-2.6,0.1-5.6,1.2-8.1,0.8c-0.2,0-0.5,0-0.7,0.1c-2.1,1.3-4.3,1-6.2,1.5
		c-2.7,0.7-5.4,1.5-8.2,2.2c-0.2,0.1-0.4,0.2-0.5,0.4c-3,4-3.2,8.4-4.5,12.3c-0.6,1.9,0,3.4,1.9,4.5c7,4.2,13,9.5,18,16.1
		c0.1,0.2,0.4,0.3,0.6,0.4c1,0.2,1.6,0.9,1.7,1.9c0,0.3,0.2,0.6,0.5,0.8c1.4,0.8,2.6,1.9,3.5,3.3c1.7,2.5,3.8,4.6,6.4,6.2
		c0.5,0.3,1.1,0.1,1.4-0.3c0.1-0.1,0.1-0.3,0.1-0.4c0.4-3.1,0.6-6.3,0.6-9.4c0-3.4,0.5-6.4,1-9.7c0.1-0.8,0.6-3.2,1.5-7.1
		c0.8-3.4,0.5-6.4,1.8-9.8c1.7-4.7,3-9.4,4-14.3c0.1-0.5-0.2-1.1-0.8-1.2c-0.1,0-0.2,0-0.3,0c-2.3,0.2-4.6,0.2-6.9,0.1
		c-0.7,0-1.2,0.2-1.6,0.7C98.6,225.6,97.9,225.6,97.5,225.1C97.5,225.2,97.5,225.1,97.5,225.1z"/>
	<path class="st2" d="M538.7,157.9l5.7-2.3c0.2-0.1,0.4-0.1,0.6-0.1c2,0.4,3.8,0,5.2-1.4c0.8-0.8,1.9-1.6,2.6-0.3
		c0.2,0.4,0.7,0.6,1.2,0.5l10-3.3c0.4-0.2,0.9,0,1.2,0.4c0.9,1.5,2.3,2.4,4.1,2.6c0.3,0,0.6,0.2,0.8,0.6c5.6,11.2-9.4,1.9-7.6,7.8
		c0.1,0.2,0,0.4-0.2,0.5l-0.3,0.2c-0.1,0.1-0.3,0-0.4-0.1l-0.8-1.2c-0.2-0.4-0.7-0.5-1.1-0.4l-22.8,6.3c-0.3,0.1-0.6,0-0.8-0.1
		c-2.5-1.7-3.7-4.1-3.4-7.2c0-0.3,0.2-0.6,0.5-0.8c0.5-0.3,4.4-3.4,4.7-2c0.1,0.3,0.4,0.6,0.7,0.5
		C538.6,157.9,538.6,157.9,538.7,157.9z"/>
	<path class="st2" d="M159.5,224.8c-5.8,9.4-14.1,20.6-21.8,26.9c-1.1,0.9-12,4.4-7.5-1.2c6.5-8.1,12.2-14.9,17.2-23.5
		c5.4-9.4,11.6-19.4,15-29.7c0.1-0.2,0.2-0.4,0.4-0.5l1.8-1.2c0.2-0.2,0.4-0.4,0.4-0.7c0.2-1.5,0.8-2.7,1.9-3.8
		c0.2-0.1,0.3-0.3,0.3-0.6l0.6-3.7c0-0.2,0.2-0.5,0.4-0.6l1.4-1.1c0.3-0.3,0.5-0.7,0.3-1.1l-0.1-0.3c-0.1-0.4,0-0.8,0.3-1
		c0.9-0.8,1.3-1.9,1.4-3.1c0-0.2,0.1-0.4,0.2-0.5c0.6-0.8,1-1.6,1.2-2.2c1.3-4.6,3.1-9.1,5.2-13.5c0.8-1.6,1.8-1.9,3.2-1.1l3.2,1.9
		c1.5,0.9,2.1,2.3,1.6,4.2c-1.8,7.2-4.5,13.9-8.1,20.2c-0.4,0.7-0.8,1.8-1.3,3.2c-0.5,1.6-1.5,2.7-2,4.3c-1.7,5.9-4.8,12.4-3.9,18.8
		c1.2,7.7,0.3,16,0.6,22.6c0.5,9.2,0.9,18.2,0.8,27.4c0,3.1,0.3,6.2,1.1,9.3c0.1,0.3,0.2,0.5,0.5,0.6c0.6,0.3,0.8,0.8,0.6,1.5
		c-0.1,0.3,0,0.6,0.1,0.8c2,2.9,5.1,8,3.5,11.4c-1,2.1-3.1,2.7-6.1,1.9c-0.3-0.1-0.5-0.2-0.6-0.5c-2.7-4.7-4.9-9.6-6.6-14.7
		c-0.1-0.2-0.1-0.4,0-0.6c0.2-0.6,0.1-1.5-0.3-2.5c-1.5-4-1.1-10.6-1.3-13.7c-0.8-11.1-1.4-22.1-1.7-33.2c0-1.8-0.6-2-1.8-0.6
		C159.6,224.6,159.5,224.7,159.5,224.8z"/>
	<path class="st2" d="M517.6,194.2c-0.8-1.5-0.4-2.6,1.2-3.3c0.3-0.1,0.7-0.1,1,0.2l5.1,4.3c0.2,0.2,0.5,0.3,0.8,0.2
		c2-0.2,2.6-1,1.8-2.2c-0.2-0.3-0.2-0.7,0-1.1l4.9-8.2c0.1-0.2,0.2-0.3,0.4-0.4l4.1-2.2c0.4-0.2,0.8-0.1,1.1,0.1
		c1.1,1,1.5,0.8,1.2-0.7c-0.1-0.5,0.1-1,0.6-1.2c5.9-2.4,11.1-3.5,17.3-4.7c7.5-1.6,14.2,1.2,20.3,5.7c6.9,5,4.5,10.7,1.1,16.8
		c-2.3,4.1-5.8,5.8-8.4,8.9c-3.5,4.2-7.3,8.1-11.2,12.6c-1.5,1.8-1.1,2.6,1.2,2.4c7.9-0.7,16.5-0.6,25.7,0.3c2,0.2,2.9,1.3,4.5,2.3
		c0.4,0.2,0.8,0.2,1.2,0l0.4-0.3c0.4-0.3,1.1-0.2,1.4,0.2c0.1,0.1,0.1,0.2,0.2,0.3l1.4,5c0.8,2.9-0.6,3.8-4.1,2.7
		c-8.2-2.5-20.8-1.9-27-1.6c-2.1,0.1-3.8,1.5-6.2,1.4c-4.7-0.2-9-1.8-13.5-2c-0.6,0-1.3-0.1-1.9-0.3c-0.3-0.1-0.6-0.3-0.7-0.6
		l-1.6-4.4c-0.6-1.7-0.3-3,1.1-3.9c8.5-5.3,15.7-12,21.6-20c1.1-1.4,2-2.6,2.9-3.5c2.5-2.5,5.3-4.2,6.5-7.4c0.1-0.3,0.1-0.6-0.1-0.9
		c-2.1-3.1-4.6-4.3-8.5-4.4c-4.7-0.2-7.6,0-8.6,0.4c-7.5,3-15.2,5.5-19.8,12.8c-0.1,0.2-0.2,0.4-0.1,0.6c0.2,2.5-0.2,4.9-1.2,7.1
		c-0.1,0.3-0.1,0.6,0,0.9c1,2,0.7,3.5-0.9,4.6c-0.4,0.3-0.6,0.9-0.3,1.3l1.9,3.2c0.1,0.2,0.1,0.3,0.1,0.5c0,5.7,0.5,11.4,1.6,17
		c0.1,0.5-0.2,1-0.6,1.1l-3.1,1.2c-0.4,0.2-0.9,0-1.2-0.4c-4.1-6-6.8-12.6-8-19.6c-0.1-0.6-0.7-1.9-1.7-4c-1-1.9-6.6-14.8-4.1-15.9
		C517.6,195.2,517.8,194.7,517.6,194.2C517.6,194.3,517.6,194.3,517.6,194.2z M545.4,179.1c0.9-0.8,0.8-1.2-0.5-1.2
		c-0.3,0-0.5,0.2-0.5,0.5c0,0.1,0,0.1,0,0.2l0.1,0.3c0.1,0.3,0.4,0.4,0.7,0.3C545.3,179.2,545.4,179.2,545.4,179.1z"/>
	<path class="st1" d="M373.3,182.3l1.2-1.5c0.2-0.3,0.5-0.4,0.9-0.4c2.5,0.2,4.9,0,7.2-0.7c3.7-1,7-1,10.5-2.1
		c0.3-0.1,0.6-0.1,0.8,0.1c0.6,0.3,1,0.5,1.4,0.5c2.2,0.1,5.2,0.1,9.1-0.2c0.6,0,1,0.4,1.1,0.9l0,0l0.1,9.9c0,0.4-0.2,0.7-0.6,0.9
		c-4.3,2-8.7,3.4-13.4,4.1c-0.4,0.1-0.9-0.2-1.1-0.6c-0.4-1-0.8-1.1-1.9-0.7c-7.7,2.3-15.5,3.6-23.5,3.8c-0.3,0-0.6-0.1-0.8-0.4
		c-1.7-2-3.6-5-0.6-6.5c0.2-0.1,0.4-0.3,0.5-0.6c1.3-4,4.1-6.1,8.3-6.4C372.9,182.7,373.1,182.5,373.3,182.3z"/>
	<path class="st1" d="M544.6,178.9l-0.1-0.3c-0.1-0.3,0-0.6,0.3-0.7c0.1,0,0.1,0,0.2,0c1.3,0,1.4,0.4,0.5,1.2
		c-0.2,0.2-0.5,0.2-0.7,0C544.7,179.1,544.6,179,544.6,178.9z"/>
	<path class="st1" d="M257.1,241.7c-1.6-1.8-1.8-3.9-2.8-5.6c-1.6-2.9-3.3-5.9-5-8.8c-2.3-4.1-0.1-7.6,0.4-11.7
		c0.5-4.1,0.7-8.2,0.7-12.3c0-1.8,0.7-2.7,2.3-2.8c4.6-0.3,9.1-0.3,13.7-0.2c2,0.1,4.8-2.8,7.5-1.1c0.2,0.2,0.5,0.2,0.8,0.1
		c4.8-1.3,6.2,0.4,4.2,5.2c-0.6,1.4-1.5,3.7-2.6,6.8c-1.1,3.2-1.1,7-2.8,10.5c-0.1,0.2-0.1,0.3-0.1,0.5c0.1,1.9,0,3.8-0.3,5.7
		c-1.5,9.6-2.1,19.2-1.6,28.9c0.1,1.7-0.5,1.9-1.7,0.8C264.9,252.8,261.9,247,257.1,241.7z"/>
	<path class="st1" d="M405.5,211.1v1.2c0,0.5-0.3,0.9-0.8,1c-3.4,0.7-6.3,0.7-9.9,1.8c-2.6,0.8-5.3,0.2-7.9,0.4
		c-0.4,0-0.8-0.2-1-0.6c-0.4-0.8-0.9-1.2-1.6-1.2c-3.8,0-7.6-0.2-11.5-0.5c-0.4,0-0.8-0.3-0.9-0.7l-1.4-4.4
		c-0.2-0.5,0.1-1.1,0.7-1.3c0.1,0,0.1,0,0.2,0c9.1-1.3,18-3.2,26.7-5.9c0.7-0.2,1.9-0.4,3.4-0.5c0.9-0.1,1.7-0.2,2.5-0.5
		c0.5-0.2,1.1,0.1,1.3,0.6c0,0.1,0.1,0.2,0.1,0.3c0,1,0.5,1.7,1.6,2.3c0.4,0.2,0.6,0.7,0.5,1.2l-0.5,1.4c-0.1,0.3-0.1,0.6,0.1,0.8
		c0.9,1.6,0.6,2.8-1,3.6C405.7,210.4,405.5,210.7,405.5,211.1z"/>
	<path class="st1" d="M98.9,225.2c0.4-0.4,1-0.7,1.6-0.7c2.3,0.1,4.6,0,6.9-0.1c0.5,0,1,0.4,1.1,0.9c0,0.1,0,0.2,0,0.3
		c-0.9,4.9-2.3,9.7-4,14.3c-1.2,3.4-1,6.4-1.8,9.8c-0.9,4-1.4,6.3-1.5,7.1c-0.5,3.2-0.9,6.2-1,9.7c0,3.2-0.2,6.3-0.6,9.4
		c-0.1,0.5-0.6,0.9-1.1,0.9c-0.1,0-0.3-0.1-0.4-0.1c-2.6-1.6-4.7-3.6-6.4-6.2c-0.9-1.4-2.1-2.5-3.5-3.3c-0.3-0.2-0.5-0.5-0.5-0.8
		c-0.1-1.1-0.6-1.7-1.7-1.9c-0.2,0-0.4-0.2-0.6-0.4c-5-6.6-11-11.9-18-16.1c-1.8-1.1-2.5-2.6-1.9-4.5c1.2-3.9,1.5-8.3,4.5-12.3
		c0.1-0.2,0.3-0.3,0.5-0.4c2.7-0.8,5.5-1.5,8.2-2.2c1.9-0.5,4.1-0.2,6.2-1.5c0.2-0.1,0.5-0.2,0.7-0.1c2.5,0.4,5.5-0.7,8.1-0.8
		c0.3,0,0.6-0.2,0.8-0.5c1-1.6,1.9-1.8,2.9-0.7C97.8,225.5,98.5,225.6,98.9,225.2L98.9,225.2z"/>
	<path class="st2" d="M424.4,231.5l5.3-0.1c0.2,0,0.5-0.1,0.6-0.3c0.9-0.8,1.8-0.9,2.7-0.3c0.3,0.2,0.7,0.2,1,0.1l0.8-0.4
		c0.5-0.3,1.1-0.1,1.3,0.4l0,0c0.6,1.2,1.1,1,1.6-0.4c0.1-0.4,0.5-0.7,1-0.7h2.9c0.4,0,0.7,0.2,0.9,0.5l0.2,0.3
		c0.3,0.6,0.6,0.6,0.9,0c0.6-1.4,1.4-1.8,2.2-1c0.4,0.4,1,0.3,1.4-0.1l0,0c0.7-0.8,1.3-0.7,1.9,0.4c0.2,0.3,0.6,0.4,0.9,0.2
		c0.1,0,0.2-0.1,0.2-0.2l0.2-0.2c0.2-0.4,0.7-0.5,1.1-0.2c0,0,0.1,0,0.1,0.1l0.2,0.2c0.3,0.3,0.8,0.3,1.1,0.1l0.5-0.3
		c0.4-0.2,0.9-0.1,1.1,0.3c0,0.1,0.1,0.2,0.1,0.3l0.1,0.3c0.1,0.8,0.4,0.9,0.9,0.2l0.8-1c0.3-0.3,0.8-0.4,1.1-0.2
		c0.4,0.3,0.5,0.6,0.2,0.9c-0.3,0.2-0.3,0.6-0.1,0.9c0.1,0.1,0.2,0.1,0.2,0.2c0.5,0.2,0.8,0.1,1-0.5c0.1-0.4,0.5-0.6,0.9-0.5
		c3.2,0.7,5.7,2.4,7.4,5c1.1,1.8,1.4,3.5,0.8,5.2c-0.7,1.9-2.3,3.1-4.6,3.4c-0.5,0.1-0.9,0.6-0.8,1.1c0.1,1.3-0.7,1.6-2.5,0.9
		c-0.3-0.1-0.6-0.4-0.6-0.8c-0.1-0.9-0.6-1.5-1.4-1.8c-0.5-0.2-0.8-0.8-0.6-1.3c0-0.1,0.1-0.2,0.2-0.3l0.3-0.3
		c0.4-0.4,0.3-1.1-0.1-1.4c0,0-0.1,0-0.1-0.1l-2.5-1.7c-0.2-0.1-0.4-0.2-0.6-0.2c-5.4,0.1-10.9,1.1-16,1.3c-3.3,0.2-6.5,0.5-9.8,0.9
		c-0.3,0-0.5,0.2-0.6,0.4c-1.1,1.5-10.8,1.5-15.7,1.7c-0.3,0-0.7,0.2-0.8,0.5c-1,1.8-2.7,2.1-5,1.1c-0.3-0.1-0.6-0.1-0.9,0l-1.7,0.9
		c-0.1,0.1-0.2,0.1-0.4,0.1c-14.8,2.1-29.5,5.1-44,9c-2.1,0.6-3.7,2-6.2,2.2c-0.1,0-0.2,0-0.3,0.1l-4.7,1.9
		c-0.2,0.1-0.4,0.3-0.5,0.5c-0.5,1.1-1.3,1.6-2.5,1.6c-0.4,0-0.8,0.3-1,0.7l-0.1,0.5c-0.1,0.5-0.6,0.8-1.1,0.7
		c-4.9-0.5-10.3-5.9-4.2-9.6c10.8-6.6,22.6-10.9,35.5-13c4.9-0.8,11.1-2.5,16.9-2.8c0.3,0,0.5-0.1,0.7-0.3c0.5-0.6,1.1-0.6,1.6-0.2
		c0.3,0.3,0.8,0.3,1.2,0.1c0.7-0.4,1.4-0.7,2.3-0.9c6.8-1.1,15.1-2.7,25-4.7c0.3-0.1,0.5-0.2,0.6-0.5s0.3-0.3,0.5,0.1
		C423.6,231.3,424,231.5,424.4,231.5z"/>
</g>
<mask id="layer-2">
  <g>
    <path id="Mask" class="st3" d="M18.2,245.3c38.6-20.8,95.8-24.4,95.8-24.4L101,284l-30.4-36.3l43.4-97.4c0,0-51.3-16.9-44,4.6
      c10.7,31.5-32.6,204.5-62.5,219.6S172,128.6,172,128.6s16.9,11.4,10.5,35.8s-38,83.7-48.2,86.3s23.4-71.4,23.4-71.4l8.1,17.8
      l2.4,75.6l7.1,15.5c0,0,12.2-64.9,28-78.6c17.9-15.5,85.1-16.1,85.1-16.1s-16.1,42.3-12.6,74.4c-7.6-3-24.3-34-24.3-34L286,128.6
      l-39.2,3.6c0,0,7.7,151.2-38.1,195.2c-30,28.9,151.5-267.3,156-252.4C367.6,84.9,382,100,331,118c-10.5,3.7,8.2,106.1,5.6,69.1
      c0.1-37-11.2-64.4,91.1-87c0,0,11.5-0.5,15.5,10.1c4.8,16.1-17,52.1-27.4,60.4s9.2-42.2,9.2-42.2h-52.6c0,0-14.9,37.6-8.3,32.4
      c14.3-11.3,31.5-14.9,31.5-14.9c0.7-0.3,7.1,1.3,6.5,1.8l-45.8,33.3l8.8,40.5l-5.8-41.1l48.2-10.7l2.3,48.2c0.1,0,0.1,0,0.1,0
      l10.2-38.8l-47.6-11.7l-1.9,33.5l37-4.5l-43.2-7.5l8.1,30.9l32.6-3.7l-74.9,17.2c0,0,2.6,26.3,13,24.7
      c9.5-11.6,72.6-23.5,113.1-23.5c37.3,12.5,2,9,2,9L450,51l71.2,11.6l19.6,6l-57.5,53.5c-0.3,0.3,0,0.8,0.4,0.6
      c12.9-5.8,78.6-43.5,137.5-42.9c54-9.4-97.3,54.1-96.5,61.9c0.8,7.8,40.5-6,40.5-6l-55.2,18l26.7,7.6l37.5-7.1L508,174.6l15.1,24
      l7.6,30.3l4.1-31.2c0,0-9.1-8.4,13.2-14.9c22.6-6.5,23.8-4.8,30.4,8.3c-15.5,17.3-37.9,35.7-33.9,35.1l50.6,0.6l32.7,20.8" />
  </g>
</mask>
</svg>
